<?xml version="1.0" encoding="UTF-8" standalone="no"?>
<!-- Created with Inkscape (http://www.inkscape.org/) -->

<svg
   width="465.66666mm"
   height="109.30048mm"
   viewBox="0 0 465.66667 109.30048"
   version="1.1"
   id="svg1"
   xmlns="http://www.w3.org/2000/svg"
   xmlns:svg="http://www.w3.org/2000/svg">
  <defs
     id="defs1" />
  <g
     id="layer1"
     transform="matrix(2.7010682,0,0,2.7010682,-176.30008,-289.94041)">
    <path
       id="path3"
       d="m 123.72882,140.91814 c -0.40383,-0.30032 -0.96457,-0.52302 -1.57521,-0.63739 0.65563,-0.18964 1.98877,-0.56927 1.98877,-1.91213 0,-1.34289 -1.265,-2.07759 -3.55424,-2.07759 h -4.16852 -0.0524 v 0.0462 0.31756 0.0452 h 0.0486 0.0207 c 0.62643,0.039 1.11905,0.0693 1.11905,0.85876 v 6.14513 c 0,0.73836 -0.40383,0.78335 -1.13974,0.8539 l -0.0486,0.007 v 0.0414 0.3186 0.0486 h 0.0524 4.34368 c 2.82809,-0.0486 3.83646,-1.27721 3.83646,-2.41208 0,-0.66781 -0.29446,-1.22125 -0.87094,-1.64211 m -3.91551,-3.57737 v 0 c 0.0172,-0.29549 0.0241,-0.58144 0.66291,-0.58144 0.90255,0 1.34169,0.52182 1.34169,1.59832 0,1.30156 -0.30515,1.77107 -2.0046,1.77835 z m 0,3.2745 h 0.35273 c 0.99623,0.0424 2.01312,0.31514 2.01312,1.99729 0,1.24921 -0.52427,1.86226 -1.6117,1.86226 -0.54617,0 -0.75415,-0.20205 -0.75415,-0.73346 z"
       style="fill:#e12021;fill-opacity:1;fill-rule:nonzero;stroke:none;stroke-width:1.21638" />
    <path
       id="path4"
       d="m 133.90663,144.55792 c -0.60698,0.0276 -0.81255,-0.36856 -1.42316,-1.73821 l -3.00324,-6.68032 -0.0138,-0.031 h -0.0365 -0.37466 -0.0345 l -0.0138,0.031 -2.98862,6.96741 c -0.39531,0.92809 -0.57899,1.35382 -1.28207,1.45112 l -0.0438,0.0103 v 0.0376 0.31756 0.0486 h 0.0486 2.73685 0.0486 v -0.0486 -0.31756 -0.0476 h -0.0486 c -0.44397,-0.0207 -1.05337,-0.0559 -1.05337,-0.49628 0,-0.19343 0.21516,-0.72252 0.57779,-1.59345 h 2.96186 c 0.16309,0.35152 0.60575,1.30758 0.60575,1.64452 0,0.36128 -0.16171,0.38073 -1.0023,0.44521 h -0.0276 -0.05 v 0.0476 0.31756 0.0486 h 0.0548 4.36072 0.051 v -0.0486 -0.31756 -0.0476 z m -5.47004,-5.5941 1.28693,2.91687 h -2.48263 z"
       style="fill:#e12021;fill-opacity:1;fill-rule:nonzero;stroke:none;stroke-width:1.21638" />
    <path
       id="path5"
       d="m 143.97286,136.29141 h -2.89863 -0.0448 v 0.0462 0.31756 0.0424 l 0.0438,0.002 c 1.03512,0.0717 1.21148,0.43303 1.21148,1.21152 v 3.74646 l -4.61856,-5.35085 -0.0138,-0.0172 h -0.0241 -2.84754 -0.051 v 0.0462 0.31756 0.0448 h 0.051 c 0.14482,0 0.33584,0 1.09716,0.8831 v 6.00404 c 0,0.81376 -0.35273,0.88676 -1.1446,0.97068 l -0.0414,0.007 v 0.0414 0.31756 0.05 h 0.051 3.06162 0.0486 v -0.05 -0.31756 -0.0414 l -0.0476,-0.007 c -0.99379,-0.0972 -1.23708,-0.33583 -1.23708,-1.21152 v -4.97743 l 5.9347,6.81052 0.0207,0.0207 h 0.0241 0.37711 0.0486 v -0.0486 -7.48316 c 0,-0.57412 0.04,-0.85389 1.00957,-0.96823 l 0.0414,-0.007 v -0.039 -0.31756 -0.0462 z"
       style="fill:#e12021;fill-opacity:1;fill-rule:nonzero;stroke:none;stroke-width:1.21638" />
    <path
       id="path6"
       d="m 154.75276,144.55792 c -0.25895,-0.0103 -0.43304,-0.0352 -0.62523,-0.25067 0,0.003 -3.73791,-4.36193 -4.08095,-4.76941 2.25641,-2.1761 2.87187,-2.76361 4.26342,-2.83781 h 0.0476 v -0.0452 -0.31756 -0.0462 h -0.0524 -3.89727 -0.0462 v 0.0462 0.31756 0.0452 h 0.0462 c 1.01323,0.0524 1.10201,0.13861 1.10201,0.37342 0,0.21895 -0.11447,0.32342 -0.47317,0.66536 0,0 -2.36219,2.23693 -2.8378,2.69061 v -2.60789 c 0,-1.04244 0.40627,-1.06919 1.13732,-1.1215 h 0.0138 l 0.0486,-0.003 v -0.0414 -0.31756 -0.0462 h -0.0524 -4.56143 -0.04 v 0.0462 0.31756 0.0452 h 0.04 0.0207 c 0.61912,0.039 1.11177,0.0693 1.11177,0.85876 v 6.14512 c 0,0.73836 -0.40262,0.78336 -1.13246,0.8539 l -0.04,0.007 v 0.0414 0.31756 0.0486 h 0.04 4.5456 0.0534 v -0.0486 -0.31756 -0.0376 l -0.0462,-0.0103 h -0.0172 c -0.69822,-0.09 -1.11908,-0.13999 -1.11908,-0.8539 v -2.46804 l 0.31032,-0.26998 2.41939,2.84508 c 0.19826,0.22378 0.30274,0.37831 0.30274,0.52792 0,0.15447 -0.18378,0.19723 -1.01082,0.21895 h -0.0486 v 0.0476 0.31756 0.0486 h 0.0486 4.53222 0.051 v -0.0486 -0.31756 -0.0476 z"
       style="fill:#e12021;fill-opacity:1;fill-rule:nonzero;stroke:none;stroke-width:1.21638" />
    <path
       id="path7"
       d="m 164.05101,136.09908 c -2.79157,0 -4.8193,1.91578 -4.8193,4.55777 0,1.29421 0.48048,2.46074 1.36358,3.29029 0.87093,0.81742 2.09704,1.26504 3.45572,1.26504 1.35627,0 2.58845,-0.44762 3.45693,-1.26504 0.87824,-0.82955 1.36479,-1.99608 1.36479,-3.29029 0,-2.64199 -2.02891,-4.55777 -4.82172,-4.55777 m 0,0.5121 c 2.10797,0 2.33668,2.82563 2.33668,4.04567 0,2.6821 -0.78701,4.04202 -2.33668,4.04202 -1.54846,0 -2.33788,-1.35992 -2.33788,-4.04202 0,-1.22004 0.23102,-4.04567 2.33788,-4.04567"
       style="fill:#e12021;fill-opacity:1;fill-rule:nonzero;stroke:none;stroke-width:1.21638" />
    <path
       id="path8"
       d="m 177.15624,136.29141 h -7.64615 -0.0486 v 0.0462 0.31756 0.0448 h 0.0486 0.0172 c 0.62278,0.039 1.1215,0.0693 1.1215,0.85876 v 6.14516 c 0,0.73832 -0.37707,0.78335 -1.13488,0.8539 h -0.0103 l -0.0414,0.007 v 0.0414 0.31756 0.05 h 0.0486 4.85334 0.0524 v -0.05 -0.31756 -0.0476 h -0.0476 c -0.92685,-0.0352 -1.44019,-0.0559 -1.44019,-0.8539 v -2.9108 c 1.56429,0.0207 1.81241,0.84417 1.96446,1.92553 l 0.003,0.04 h 0.0428 0.34307 0.0476 v -0.0462 -4.29259 -0.0486 h -0.0476 -0.34307 -0.0376 l -0.007,0.0376 c -0.1824,0.96213 -0.34546,1.86226 -1.96447,1.85374 v -2.89742 c 0,-0.49506 0.18723,-0.55102 0.92324,-0.55102 2.29654,0 2.63589,0.7858 2.93025,2.0861 l 0.007,0.0352 h 0.0414 0.32584 0.0476 v -0.0448 -2.55317 -0.0462 z"
       style="fill:#e12021;fill-opacity:1;fill-rule:nonzero;stroke:none;stroke-width:1.21638" />
    <path
       id="path9"
       d="m 188.99012,140.91814 c -0.40869,-0.30032 -0.96823,-0.52302 -1.57642,-0.63739 0.65684,-0.18964 1.98756,-0.56927 1.98756,-1.91213 0,-1.34289 -1.26259,-2.07759 -3.55427,-2.07759 h -4.16728 -0.05 v 0.0462 0.31756 0.0452 h 0.05 0.0172 c 0.62643,0.039 1.11784,0.0693 1.11784,0.85876 v 6.14513 c 0,0.73836 -0.40142,0.78335 -1.13853,0.8539 l -0.0476,0.007 v 0.0414 0.3186 0.0486 h 0.05 4.33879 c 2.83053,-0.0486 3.84256,-1.27721 3.84256,-2.41208 0,-0.66781 -0.30032,-1.22125 -0.87093,-1.64211 m -3.91552,-0.78214 v -2.79523 -0.001 c 0.0104,-0.29446 0.0241,-0.58023 0.65805,-0.58023 0.90621,0 1.34776,0.52182 1.34776,1.59832 0,1.30156 -0.30756,1.77107 -2.00581,1.77835 m 0,0.47927 h 0.35273 c 0.99503,0.0424 2.01312,0.31514 2.01312,1.99729 0,1.24921 -0.52548,1.86226 -1.60805,1.86226 -0.55344,0 -0.7578,-0.20205 -0.7578,-0.73346 z"
       style="fill:#e12021;fill-opacity:1;fill-rule:nonzero;stroke:none;stroke-width:1.21638" />
    <path
       id="path10"
       d="m 198.58387,142.2328 h -0.0376 l -0.007,0.031 c -0.86972,1.95715 -2.25275,2.21868 -3.4971,2.21868 -0.86607,0 -1.08377,-0.13619 -1.08377,-0.66174 v -3.02755 c 1.22486,0.0104 1.92064,0.32963 2.08121,1.92674 l 0.003,0.039 h 0.0448 0.35397 0.05 v -0.0462 -4.29258 -0.0486 h -0.05 -0.35397 -0.0448 l -0.003,0.0448 c -0.19585,1.54967 -0.8831,1.85379 -2.08121,1.84892 v -2.89987 c 0,-0.49506 0.18722,-0.55099 0.93051,-0.55099 1.81847,0 2.73564,0.30998 3.03972,2.08487 l 0.003,0.0376 h 0.0462 0.33825 0.0448 v -0.0448 -2.55438 -0.0462 h -0.0448 -7.77752 -0.051 v 0.0462 0.31859 0.0438 h 0.0476 0.0172 c 0.62522,0.039 1.12029,0.0707 1.12029,0.8588 v 6.14512 c 0,0.73957 -0.37832,0.78336 -1.1276,0.85511 h -0.0104 l -0.0452,0.003 v 0.0424 0.31756 0.0486 h 0.051 7.88458 0.0414 l 0.003,-0.04 0.54006,-2.64076 0.0103,-0.0583 h -0.0583 z"
       style="fill:#e12021;fill-opacity:1;fill-rule:nonzero;stroke:none;stroke-width:1.21638" />
    <path
       id="path11"
       d="m 199.68661,136.29141 h -0.0448 v 0.0462 0.31756 0.0448 h 0.0448 l 0.0241,0.003 c 0.60819,0.0352 1.18111,0.0707 1.18111,0.8551 v 6.14516 c 0,0.7517 -0.48048,0.79187 -1.20911,0.8539 l -0.0424,0.007 v 0.0414 0.31756 0.05 h 0.0448 4.72197 0.0452 v -0.05 -0.31756 -0.0476 h -0.0414 c -0.74442,-0.0462 -1.23828,-0.0838 -1.23828,-0.8539 v -6.14516 c 0,-0.80645 0.58875,-0.83076 1.20787,-0.85876 h 0.031 0.0414 v -0.0448 -0.31756 -0.0462 h -0.0452 z"
       style="fill:#e12021;fill-opacity:1;fill-rule:nonzero;stroke:none;stroke-width:1.21638" />
    <path
       id="path12"
       d="m 206.80728,136.29141 h -0.05 v 0.0462 0.31756 0.0448 h 0.05 0.0207 c 0.74687,0.0276 1.28817,0.0462 1.28817,0.85876 v 7.0635 c 0,0.38925 0,1.05461 -0.82107,1.05461 -0.32722,0 -0.54251,-0.13517 -0.54251,-0.34787 0,-0.14482 0.0621,-0.21516 0.14482,-0.30412 0.10102,-0.10826 0.21515,-0.23239 0.21515,-0.51937 0,-0.70549 -0.66412,-1.0023 -1.02054,-1.0023 -0.38434,0 -1.00716,0.27963 -1.00716,1.0254 0,0.0172 0.0996,1.66159 2.32695,1.66159 0.85145,0 1.5314,-0.18136 2.02405,-0.53888 0.63981,-0.46707 0.96458,-1.23704 0.96458,-2.29165 v -5.53818 c 0,-1.04729 0.37586,-1.06919 1.12515,-1.11784 l 0.031,-0.003 0.0462,-0.002 v -0.0424 -0.31756 -0.0462 h -0.051 z"
       style="fill:#e12021;fill-opacity:1;fill-rule:nonzero;stroke:none;stroke-width:1.21638" />
    <path
       id="path13"
       d="m 212.27888,136.29141 h -0.0448 v 0.0462 0.31756 0.0448 h 0.039 l 0.031,0.003 c 0.60454,0.0352 1.17866,0.0707 1.17866,0.8551 v 6.14516 c 0,0.7517 -0.47803,0.79187 -1.21028,0.8539 l -0.039,0.007 v 0.0414 0.31756 0.05 h 0.0448 4.7159 0.0486 v -0.05 -0.31756 -0.0476 h -0.0414 c -0.74808,-0.0462 -1.23949,-0.0838 -1.23949,-0.8539 v -6.14516 c 0,-0.80645 0.58872,-0.83076 1.20422,-0.85876 h 0.031 0.0462 v -0.0448 -0.31756 -0.0462 h -0.0486 z"
       style="fill:#e12021;fill-opacity:1;fill-rule:nonzero;stroke:none;stroke-width:1.21638" />
    <path
       id="path14"
       d="m 224.05552,136.29141 h -0.0462 v 0.0462 0.31756 0.0424 l 0.0462,0.002 c 1.03392,0.0717 1.21273,0.43303 1.21273,1.21152 v 3.74646 l -4.6198,-5.35085 -0.0172,-0.0172 h -0.0207 -2.84632 -0.0486 v 0.0462 0.31756 0.0448 h 0.0486 c 0.13999,0 0.33204,0 1.09474,0.8831 v 6.00404 c 0,0.81376 -0.34791,0.88676 -1.14339,0.97068 l -0.0452,0.007 v 0.0414 0.31756 0.05 h 0.0559 3.05796 0.05 v -0.05 -0.31756 -0.0414 l -0.0462,-0.007 c -0.99499,-0.0972 -1.23218,-0.33583 -1.23218,-1.21152 v -4.97985 l 5.93715,6.81294 0.0103,0.0207 h 0.0276 0.37342 0.0524 v -0.0486 -7.48316 c 0,-0.57412 0.0414,-0.85389 1.00961,-0.96823 l 0.0414,-0.007 v -0.039 -0.31756 -0.0462 h -0.0486 z"
       style="fill:#e12021;fill-opacity:1;fill-rule:nonzero;stroke:none;stroke-width:1.21638" />
    <path
       id="path15"
       d="m 237.36704,141.22905 h -4.62587 -0.0486 v 0.0486 0.31514 0.0448 l 0.0462,0.002 c 0.93296,0.0534 1.31489,0.0741 1.31489,0.84538 v 1.33438 c 0,0.54251 -0.2286,0.87941 -1.35137,0.87941 -2.24665,0 -2.57993,-2.5179 -2.57993,-4.01647 0,-2.70158 0.82348,-4.07243 2.4437,-4.07243 1.57884,0 2.6882,1.60928 3.09568,2.56414 l 0.0138,0.0276 h 0.0345 0.33343 0.0524 v -0.0448 -2.97525 -0.0486 h -0.0524 -0.36615 -0.0352 l -0.007,0.031 c -0.14482,0.34545 -0.25412,0.55709 -0.57413,0.55709 -0.11309,0 -0.31997,-0.0765 -0.57657,-0.17275 -0.51576,-0.1886 -1.22367,-0.45003 -2.02284,-0.45003 -2.79281,0 -4.82293,1.93526 -4.82293,4.60398 0,2.24544 1.52533,4.50788 4.92999,4.50788 1.13973,0 2.99593,-0.34666 3.67101,-0.79549 l 0.0207,-0.0138 v -0.0241 -1.61411 c 0,-1.00595 0.28101,-1.0315 1.11422,-1.12515 l 0.0448,-0.003 v -0.0424 -0.31515 -0.0486 z"
       style="fill:#e12021;fill-opacity:1;fill-rule:nonzero;stroke:none;stroke-width:1.21638" />
    <path
       id="path16"
       d="m 137.52127,130.73354 c 0.91958,0.007 1.97174,0.0276 3.32436,-0.16791 1.39761,-0.20206 2.25637,-1.46454 2.41087,-2.25762 l 0.0972,-0.54978 c 0,0 0.32101,-1.89271 0.32101,-1.8854 l 0.0207,-0.28101 c 0,-0.63009 -0.0558,-1.36358 -0.25308,-1.88175 -0.12999,-0.32721 -0.19964,-1.26869 -0.59357,-1.57642 -0.31515,-0.23964 -0.41238,0.3929 -0.44035,0.51816 0,0 0,0.031 -0.0852,0.29067 -0.0972,0.26032 -0.2324,0.51937 -0.2324,0.51937 -0.21515,0.37345 -0.14481,0.4732 -0.72618,0.73229 -0.444,0.19446 -0.79307,0.3941 -1.32586,0.88672 -0.47924,0.43424 -0.98282,0.49265 -1.68104,0.55954 -0.47682,0.0476 -0.73956,0.12413 -1.18232,0.15206 -0.27377,0.0207 -0.52061,0.09 -0.91348,-0.0276 0,0 -0.17033,-0.0645 -0.17653,-0.0645 l -0.99254,-0.24342 c -1.20911,-0.23102 -1.5205,-1.48764 -1.63484,-1.96447 -0.13516,-0.52547 0.0138,-1.19932 0.0462,-1.7321 0.031,-0.461 -0.031,-0.61064 -0.0972,-0.88917 0,0 -0.089,-0.51941 -0.0914,-0.5401 0,-0.2979 0.0138,-0.73466 0.22033,-1.13487 0.12412,-0.26032 0.17515,-0.37707 0.31514,-0.63371 0.17895,-0.33687 0.18964,-0.42452 0.62888,-0.49751 0.18378,-0.0345 0.76143,0.23826 1.38665,0.14826 0.37466,-0.0524 0.68484,-0.14481 0.91107,-0.16309 0.14102,-0.0207 0.22032,-0.0207 0.27859,-0.0241 l -0.0138,-0.003 c 0.0276,0 0.82228,-0.10206 1.39034,-0.0103 0.34542,0.0559 0.76387,-0.002 1.12756,-0.0972 0,0 0.33205,-0.0852 0.33446,-0.089 0.64105,-0.21756 1.24925,-1.08746 1.44385,-1.93405 l 0.0276,-0.27722 c 0,-0.73956 -0.1655,-1.43899 -0.60577,-1.7881 -0.33929,-0.20067 -0.95241,-0.31135 -1.53992,-0.31135 -0.48778,0 -0.87458,-0.26274 -1.65062,-0.28343 -0.4671,-0.007 -1.09233,-0.0207 -1.91337,0.0717 -1.43047,0.15206 -1.91822,-0.42572 -2.33057,-0.94634 -0.18964,-0.22136 -0.41114,-0.50602 -0.41114,-0.50602 -0.61671,-0.61185 -0.70063,-1.17988 -0.73835,-1.68104 -0.0414,-0.52913 -0.27964,-0.86728 -0.56927,-0.86728 -0.12895,0 -0.2617,0.0607 -0.39166,0.2055 -0.23825,0.24343 -0.52913,0.55344 -0.56805,1.05826 -0.0448,0.51331 -0.0583,1.21639 -0.0583,1.21639 0,2.8597 0.26998,7.65587 0.32584,8.21903 0,0 0.0207,0.40752 0.0207,0.41359 0,0.75535 -0.1824,2.91321 -0.41111,3.30125 -0.30032,0.49872 -0.6605,0.4391 -1.0023,0.37828 -0.34411,-0.0559 -0.53399,0.003 -0.80403,0.0862 -0.27619,0.0866 -0.32722,0.17137 -0.93417,0.17137 -0.37345,0 -0.59847,-0.1593 -0.71525,-0.29308 -0.15206,-0.17275 -0.22378,-0.5121 -0.22378,-1.03513 0,0 0.0476,-0.75052 0.0476,-0.74687 0,0 0.0241,-0.29687 0.0241,-0.30411 l 0.0559,-0.53765 c 0.0207,-0.13757 0.0276,-0.22033 0.0452,-0.28342 l -0.0241,-0.24102 0.0865,-0.68846 c 0.0524,-0.3248 0.0779,-0.48776 0.0996,-0.57778 -0.003,0.003 -0.0172,0.0207 -0.0172,0.0207 l 0.051,-1.31007 -0.0103,-1.45233 c 0,-0.79797 -0.30515,-3.64671 -0.40383,-4.30721 -0.0948,-0.66415 -0.17137,-1.10205 -0.99134,-1.73335 -0.66781,-0.51937 -0.8089,-0.38193 -1.19207,0.007 -0.26998,0.26653 -0.4099,0.77118 -0.4099,1.14825 0,0.051 0.0103,0.10103 0.0103,0.13861 0,0.0707 0.007,0.13034 0.007,0.1862 0,0.61915 -0.39776,0.76755 -0.84783,0.9342 -0.11068,0.0452 -0.17619,0.0658 -0.23102,0.0755 l 0.0104,0.007 c -0.54617,0.20792 -1.12636,0.12758 -1.63484,0.051 l -0.70063,-0.0621 -0.46221,0.0103 c -0.60088,0.0172 -1.43047,0.0172 -2.108,0.28205 -0.37462,0.15068 -0.57047,0.45127 -0.57047,0.92444 0,0.14241 0.0241,0.30412 0.0597,0.47197 0.05,0.26653 0.0707,0.50478 0.0707,0.78821 0,0.37221 -0.04,0.79673 -0.13274,1.42923 -0.0138,0.0828 -0.0276,0.15688 -0.0276,0.22033 0,0.416 0.22619,0.57898 0.56927,0.94754 0.3479,0.36735 0.55102,0.65685 0.89041,0.91107 0.34907,0.2617 1.59101,1.07529 2.20041,1.16287 0.2617,0.031 0.50723,-0.0276 0.75049,-0.0914 0.36007,-0.0972 0.77363,-0.19964 1.21763,0.0172 0.79307,0.40748 0.8782,1.36234 0.69087,2.12014 -0.20308,0.81983 -0.832,1.31489 -1.8513,1.4694 -0.39776,0.0597 -0.79797,0.039 -1.14218,0.0172 l -0.93176,0.007 c -0.60212,0.09 -0.65318,0.13758 -0.97068,0.40387 -0.34666,0.29687 -0.63981,0.25308 -0.84538,0.22136 -0.13757,-0.0207 -0.25411,-0.031 -0.48534,0.0559 -0.54006,0.20308 -1.06919,0.52547 -1.11539,2.02404 v 0.32101 c 0,1.20177 0.26894,1.56667 1.29541,2.4656 0.46103,0.40624 1.52657,0.832 3.99096,0.54857 1.56912,-0.17033 2.6821,-0.51209 3.2234,-0.96216 0.47196,-0.40869 1.14825,-0.69577 1.74186,-0.96579 0.39652,-0.18722 0.59967,-0.27963 0.7128,-0.31514 -0.007,0 -0.0207,-0.007 -0.0207,-0.007 1.1434,-0.62523 1.98391,-0.93055 2.56411,-0.93055 0.69943,0 0.78335,0.88555 0.81131,1.31493 0,0.0172 0.0138,0.0414 0.0138,0.0597 0,0 0.0765,0.56686 0.0765,0.54737 0.1131,0.49996 0.64467,1.06071 0.9512,1.18843 0.30411,0.13137 0.47438,0.29446 0.65564,0.45979 0.28584,0.24308 0.40262,0.22619 0.56926,0.34666 0.16896,0.10447 0.46341,0.14481 0.71764,0.13516 0.25929,-0.0103 0.37586,-0.0103 0.42696,-0.0103 l -0.0103,-0.001 0.0938,-0.0103 c 0,0 0.90255,-0.15689 1.76376,-0.18964 0,0 1.31489,-0.007 1.31855,-0.007"
       style="fill:#e12021;fill-opacity:1;fill-rule:nonzero;stroke:none;stroke-width:1.21638" />
    <path
       id="path17"
       d="m 173.4886,114.91405 c 0.13137,-0.0838 0.16895,-0.13033 0.30756,-0.48775 0,0 0.32239,-0.73105 0.32239,-0.7335 0.0862,-0.17033 0.13378,-0.34066 0.13378,-0.50237 0,-0.43545 -0.29308,-0.72253 -0.43789,-0.78942 0,0 -0.97675,-0.44276 -0.98282,-0.44641 l -0.35397,-0.20068 c -0.28722,-0.17998 -0.54492,-0.33928 -0.89889,-0.33928 -0.2493,0 -0.44397,0.0779 -0.65685,0.15689 -0.23963,0.0962 -0.50479,0.20446 -0.81376,0.13757 l -1.28328,-0.15688 c -0.58019,-0.0572 -0.73956,-0.0814 -0.8028,-0.0948 0.0138,0.007 0.0241,0.0138 0.0241,0.0138 -0.86241,-0.0986 -2.09097,0.25653 -2.2503,0.33583 -0.18619,0.0938 -1.47061,0.27377 -1.88054,-0.21757 -0.20792,-0.25894 -0.33584,-0.37952 -0.86242,-0.75418 -0.48168,-0.35638 -0.62522,-0.96457 -0.94023,-1.28569 -0.36008,-0.36735 -1.17384,-0.58509 -1.93405,-0.58509 -0.37952,0 -0.75294,0.0548 -1.05581,0.16895 -0.4379,0.17896 -0.63009,0.57292 -0.76391,0.83928 -0.10447,0.21171 -0.2555,0.34411 -0.43665,0.53886 -0.2824,0.24825 -0.37346,0.416 -0.53158,0.76997 -0.1593,0.35763 -0.17757,0.61916 -0.72619,0.61671 l -0.5364,-0.0276 c 0,0 -1.13853,-0.0172 -1.79172,-0.0621 l -1.30155,-0.0683 c 0,0 -3.26595,0.051 -3.2757,0.051 h -0.35032 c -0.8028,-0.0138 -1.293,-0.031 -1.97053,0.77608 -0.68236,0.81131 -0.50479,1.54842 -0.29205,2.08242 0,0 0.0986,0.50478 0.24067,0.79066 0.13999,0.28825 0.16068,0.45493 1.46571,0.4172 1.71631,-0.0559 2.1238,0.49262 2.47291,0.96944 0,0 0.13378,0.17895 0.13137,0.17758 0.39169,0.49506 0.45613,1.33072 0.5133,2.14934 0.0241,0.36976 0.0476,0.58144 0.0476,0.69453 0,0.031 -0.007,0.0345 -0.0207,0.0524 0.0207,-0.007 0.0241,-0.0207 0.0241,-0.0207 0.0462,0.34667 0.0838,0.71646 0.0838,1.07043 0,0.60454 -0.13758,1.16164 -0.36735,1.40369 -0.26515,0.27721 -0.28343,0.50844 -0.22033,0.74321 0,0 0.0655,0.27722 0.0765,0.2955 0.0241,0.15067 0.0345,0.29445 0.0345,0.44637 0,0.4379 -0.10448,0.91838 -0.22999,1.51805 l -0.0962,0.42938 c -0.19343,0.90255 -0.54612,1.06799 -0.9232,1.16043 -0.10826,0.0376 -0.18378,0.0559 -0.23481,0.0741 h 0.0172 c 0,0 -0.19826,0.0962 -0.2117,0.0962 -0.19344,0.0862 -0.38925,0.17033 -0.44766,0.34911 l -0.0345,0.20791 c 0,0.22999 0.0914,0.55348 0.26998,0.9281 0.77359,1.65549 1.98146,1.70414 3.25867,1.75038 1.26866,0.0524 3.3426,-0.68846 3.94348,-1.09109 0.47075,-0.31135 0.47075,-0.57292 0.47075,-0.86851 0,-0.24102 0.0962,-0.40749 0.16896,-0.53275 l 0.10447,-0.31515 v -0.079 c -0.0276,-0.20447 -0.41114,-0.34545 -0.74442,-0.34545 -0.34308,0 -0.56075,-0.15827 -0.79673,-0.31377 -0.41355,-0.25067 -0.53155,-0.32722 -0.57899,-0.36004 0.0138,0.007 0.0172,0.0172 0.0172,0.0172 -0.53885,-0.27136 -0.98892,-0.0486 -1.11422,0.031 -0.28101,0.1655 -0.71522,0.25308 -1.06188,0.079 -0.13861,-0.0683 -0.39411,-0.25171 -0.43183,-0.66781 -0.0207,-0.2286 0.0376,-0.4379 0.17654,-0.59723 0.30515,-0.36735 0.90258,-0.39531 1.65307,-0.44276 l 0.0659,-10e-4 c 0.86121,-0.051 0.88917,-0.0583 1.49371,-0.31377 0.70429,-0.29067 1.02174,-0.30273 1.9547,-0.34911 1.22856,-0.0597 1.3721,0.57171 1.42317,1.22735 0.031,0.5814 -0.0138,0.8028 -0.15585,1.39151 l -0.0914,0.37221 c -0.20308,0.84783 -0.40017,1.92433 -0.21032,2.70644 0.30411,1.2249 0.8551,2.17855 1.11418,2.18707 h 0.0207 c 0.51817,-0.0862 1.01813,-0.82835 1.49857,-1.54726 0.35156,-0.53275 0.17999,-1.61656 -0.0972,-2.45584 -0.16654,-0.50968 -0.29791,-1.9888 -0.12413,-2.92418 0.21274,-1.12394 2.11283,-1.13367 3.21974,-1.04002 0.37707,0.031 0.64347,0.17895 0.8308,0.2786 0.20688,0.11551 0.55102,0.15309 0.8089,0.19447 0.83321,0.13137 1.20663,0.12171 1.8063,0.28342 0,0 0.55834,0.14103 0.55589,0.13241 0.34787,0.0755 0.68967,-0.0597 0.89038,-0.35639 0.12033,-0.17274 0.10344,-0.24584 -0.17275,-0.67143 l -0.16895,-0.27136 c -0.23964,-0.40993 -0.74442,-1.04367 -0.6313,-2.51062 0.10103,-1.30273 1.0765,-2.22476 1.30518,-2.42181 0.32342,-0.27722 0.51089,-0.40383 0.55954,-0.84052 0.0631,-0.44517 -0.49507,-1.33193 -0.52913,-1.53625 -0.0659,-0.39656 0.21515,-0.73957 0.51575,-0.8539 0.31135,-0.12896 0.26032,-0.089 0.73346,0.0655 0.36735,0.12516 0.6897,0.2555 0.88189,0.23102 0.19344,-0.0207 0.39411,-0.18723 0.61306,-0.42573 0.20688,-0.21653 0.388,-0.38314 0.57047,-0.49992 m -7.35545,5.95293 c -0.17654,0.28722 -0.49261,0.46104 -0.93782,0.51089 -0.6836,0.0866 -1.85254,0.0462 -2.71375,0.0241 l -0.76142,-0.0241 c 0,0 -0.41238,0.0172 -0.41966,0.0172 -0.72618,0.0207 -2.06907,0.0438 -2.82567,-0.0559 -0.36976,-0.0534 -0.83321,0.007 -1.26989,0.0631 0,0 -0.46221,0.0717 -0.98527,0.0631 -0.52548,-0.0172 -0.98647,-0.24343 -1.15191,-0.53033 -0.10827,-0.19102 -0.12171,-0.40994 -0.0352,-0.62523 0.28101,-0.64712 0.9792,-0.86972 1.47671,-0.98161 0,0 0.53275,-0.0765 0.54127,-0.0814 0.13137,-0.0138 0.9062,-0.18861 1.46454,-0.0803 0.30273,0.0548 0.77238,0.11309 0.99864,0.0852 0.61061,-0.0534 2.2211,-0.0345 2.77212,0.0172 0.53762,0.0583 1.18108,0.0345 2.0216,-0.0669 1.3733,-0.15826 1.74917,0.38925 1.84041,0.63009 l 0.10688,0.54006 c 0,0.17999 -0.0414,0.34308 -0.12171,0.49506 m 2.13231,-4.49084 -0.0103,0.007 c -0.22516,0.34542 -0.59602,0.18964 -0.83445,0.089 -0.24205,-0.0997 -0.64954,-0.26653 -1.33438,-0.40383 -0.76508,-0.14964 -1.60559,-0.14102 -2.28313,-0.12171 0,0 -1.11298,-0.0345 -1.13487,-0.04 -0.58751,-0.0948 -2.61155,0.0138 -3.28667,0.0655 0,0 -2.05811,0.0104 -2.06539,0.0104 -0.45251,-0.003 -0.78093,-0.0104 -0.78093,-0.0104 -0.35273,0.0241 -1.17746,0.10689 -1.5083,-0.031 -0.41234,-0.17999 -0.54006,-0.29067 -0.59236,-0.71522 0,0 -0.0104,-0.12654 -0.0104,-0.1193 -0.0524,-0.31032 0.079,-0.50844 0.17895,-0.62157 0.26998,-0.27377 0.71036,-0.28722 1.04244,-0.24929 0.42696,0.0414 1.7601,0.15447 2.35491,0.0583 0.2555,-0.0548 0.39532,-0.0828 0.47438,-0.0828 0,-0.003 -0.0138,-0.0103 -0.0138,-0.0103 0.32101,-0.0693 0.60453,-0.13136 1.22369,-0.13136 0.83807,0 1.56426,0 2.05932,0.18481 0.30032,0.11447 1.21394,0.0424 1.50102,-0.0138 0.20308,-0.0414 0.39897,0.003 0.63009,0.0645 0.22377,0.0462 0.50478,0.11448 0.80524,0.091 l 0.32825,-0.031 c 0.55465,-0.0597 1.03512,-0.10965 1.45599,0.12895 1.39885,0.81253 1.43654,0.81253 1.64821,0.98889 0.22136,0.17171 0.19585,0.30032 0.23102,0.48658 0.0345,0.18482 -0.079,0.40869 -0.079,0.40869"
       style="fill:#e12021;fill-opacity:1;fill-rule:nonzero;stroke:none;stroke-width:1.21638" />
    <path
       id="path18"
       d="m 172.15319,126.9445 c -0.23481,-0.44155 -0.81497,-0.66657 -1.73576,-0.66415 h -0.031 c -0.15205,0 -0.37342,-0.0741 -0.61547,-0.16551 -0.0138,-0.007 -0.54495,-0.10723 -0.54495,-0.10723 -0.1824,-0.0486 -0.6775,0.0104 -0.8478,0.0938 -0.003,0.007 -0.39896,0.17895 -0.39896,0.17895 -0.33343,0.14102 -0.63009,0.11206 -0.91352,0.0938 -0.0138,-0.002 -0.461,-0.0138 -0.461,-0.0138 -0.50478,-0.003 -0.88796,0.0766 -1.35261,-0.0376 -0.2786,-0.0655 -0.67388,-0.18137 -1.06919,-0.18137 -0.42086,0 -0.69457,0.54493 -0.69457,1.37451 0,0.52058 0.27619,0.79184 0.63981,1.12757 0.007,0.007 0.58389,0.6544 0.58389,0.6544 0.51937,0.7189 1.02781,1.0096 1.9316,1.12029 0.78697,0.0972 0.94024,0.089 1.38665,0.25894 l 0.69577,0.2286 c 0.29791,0.17999 0.5632,0.28343 0.95,0.27722 0.39531,-0.007 0.43303,-0.007 1.08746,-0.20067 0.66046,-0.19343 1.01688,-0.84418 1.25528,-1.22977 0.001,-0.007 0.09,-0.14102 0.09,-0.14102 0.10103,-0.14585 0.0914,-0.31377 0.09,-0.49386 -0.0103,-0.20067 -0.0172,-0.41962 0.11551,-0.61426 0.27136,-0.37342 0.21757,-0.86607 -0.16067,-1.55939"
       style="fill:#e12021;fill-opacity:1;fill-rule:nonzero;stroke:none;stroke-width:1.21638" />
    <path
       id="path19"
       d="m 199.17072,128.64378 c 0.18136,-0.13999 0.42207,-0.33204 0.78335,-0.36976 0.74684,-0.0669 1.43409,0.33825 1.93281,1.1519 0.39169,0.61913 0.6824,0.8478 1.43289,1.23825 0.80162,0.4221 1.06191,0.30515 1.4986,0.089 0.56927,-0.27619 1.06674,-0.96461 1.32096,-1.22856 0.25067,-0.25791 0.31377,-0.33445 0.54617,-0.57292 0.23239,-0.23239 0.61912,-0.91958 0.43303,-1.42192 -0.0814,-0.23239 -0.15688,-0.15826 -0.44155,-0.12413 -0.29308,0.0276 -0.71036,-0.0103 -1.02661,-0.0948 -0.3929,-0.0986 -0.64226,-0.32825 -0.86727,-0.55347 -0.17275,-0.14826 -0.34308,-0.31997 -0.59847,-0.43424 -0.6313,-0.26757 -1.40734,-1.13732 -1.9316,-1.76131 l -0.21033,-0.23481 c -0.1824,-0.22619 -0.62157,-0.75901 -0.88797,-0.91713 -0.2748,-0.17033 -0.43424,-0.4671 -0.43424,-0.82473 0,0 0.0138,-0.13999 0.0138,-0.14723 0.0534,-0.45613 0.35518,-0.83686 0.7797,-0.95851 l 0.57533,-0.1155 c 0,0 0.34546,-0.031 0.53644,-0.10724 0.20068,-0.0852 0.32239,-0.17136 0.39652,-0.43789 0.05,-0.18378 0.12896,-0.2955 0.14344,-0.52669 0.0172,-0.17515 -0.0414,-0.56561 -0.0414,-0.55954 l -0.0731,-0.61305 c 0,0 -0.001,-0.0938 -0.001,-0.0962 0,0 -0.0476,-0.78577 -0.0476,-0.79308 0,-0.321 0.0803,-0.62888 0.12757,-0.87824 0.0438,-0.24929 0.0597,-0.5814 0.0597,-0.5814 l 0.003,-0.3479 -0.007,-0.99864 c 0,-0.69819 0.16653,-1.09595 0.66046,-1.50464 0,0 0.0621,-0.051 0.0669,-0.0535 0.41355,-0.35031 0.73832,-0.62643 0.91227,-0.96213 0.0924,-0.1655 0.14344,-0.29204 0.14344,-0.40872 0,-0.12758 -0.0607,-0.28446 -0.19205,-0.48045 -0.23826,-0.34066 -0.46345,-0.5705 -0.81618,-0.5705 h -0.0693 c -0.55468,0 -0.85149,-0.0631 -1.15922,-0.33101 -0.17275,-0.14344 -0.35032,-0.22274 -0.67509,-0.26894 -0.29687,-0.0414 -0.45248,-0.0559 -0.52182,-0.12034 -0.11309,-0.0621 -0.29308,-0.0838 -0.43789,-0.0914 -0.1424,-0.007 -0.30274,0.0103 -0.58995,0.0486 0,0 -0.67023,0.0862 -0.97189,0.0948 -0.30515,0.007 -0.99499,-0.0241 -0.99499,-0.0241 0,0 -2.29044,-0.079 -2.30627,-0.079 -1.52167,-0.15447 -2.125,-0.11447 -2.35367,-0.0607 -0.38804,0.0986 -1.39885,-0.30273 -1.70659,-0.26756 -0.32101,0.0241 -0.5194,0.13758 -0.61671,0.2324 -0.0914,0.0865 -0.12412,0.15447 -0.12412,0.15447 -0.0996,0.16309 -0.13758,0.27377 -0.42452,0.4914 -0.14723,0.11448 -0.21033,0.16654 -0.28101,0.24205 -0.0828,0.0693 -0.57658,0.38801 -0.96462,0.39166 -0.34666,0.0138 -0.81983,-0.23101 -1.06308,-0.33342 -0.24102,-0.0962 -0.37222,-0.0938 -0.55589,-0.0865 -0.18378,0.007 -0.66781,0.12274 -0.95972,-0.26136 -0.0862,-0.1193 -0.29308,-0.24688 -0.51699,-0.38559 0,0 -0.45003,-0.29308 -0.45369,-0.29308 -0.34169,-0.25309 -0.5194,-0.63619 -0.67508,-0.79673 -0.16171,-0.15068 -0.30032,-0.30412 -0.4379,-0.35763 -0.13275,-0.0486 -0.30273,-0.007 -0.40872,0.0755 -0.17275,0.14241 -0.23585,0.17275 -0.47559,0.7566 -0.25791,0.6106 -0.82958,1.02905 -1.48277,1.50953 -0.38073,0.28963 -0.29446,0.19206 -0.63737,0.48655 -0.34545,0.28825 -1.33558,0.81983 -1.92919,1.08622 -0.4391,0.19447 -0.5583,0.24929 -0.59236,0.26757 0.007,-0.003 0.0172,-0.003 0.0172,-0.003 -0.77118,0.388 -2.07639,1.3891 -2.07639,2.67117 0,1.49857 0.54616,1.91336 0.87338,2.03135 0.30032,0.0972 0.5644,0.003 0.88551,-0.11792 0,0 0.43304,-0.14102 0.43911,-0.14102 0.31377,-0.0669 0.54251,0.0438 0.67512,0.14722 0.43544,0.33343 0.11309,0.64713 0.28687,0.94879 0.0345,0.051 0.0755,0.11792 0.14826,0.18619 0.0717,0.0655 0.17275,0.1193 0.17275,0.1193 0.09,0.0607 0.27963,0.0535 0.47441,0.051 0.26515,-0.007 0.5644,-0.0103 0.87093,0.11206 0.40869,0.18482 0.51572,0.45128 0.52303,0.64588 0.0172,0.31377 -0.19102,0.61306 -0.58872,0.83687 -0.30411,0.1824 -0.82348,0.15585 -1.5667,0.10689 l -0.59481,-0.0241 c -0.22998,0.04 -0.38073,0.0572 -0.40869,0.84538 0,0.0631 -0.007,0.12275 -0.007,0.17999 0,0.84903 0.28101,1.45478 0.82107,1.76982 0.28343,0.15206 0.8709,0.1193 1.3149,0.089 0.50723,-0.0345 0.84658,-0.0548 1.06067,0.19722 0.17378,0.20068 0.21412,0.58144 0.21412,0.86121 0,0.44641 -0.0924,0.93782 -0.21412,1.15312 -0.15447,0.24929 -0.46586,0.45006 -0.81252,0.67387 0,0 -0.18378,0.11068 -0.24826,0.17999 -0.0669,0.0683 -0.16791,0.15205 -0.18722,0.32101 -0.0172,0.16654 -0.0172,0.26998 0.0352,0.37462 0.0534,0.10723 0.0707,0.42086 0.0852,0.52306 0.0138,0.10586 0.007,0.16551 0.0172,0.28584 0.007,0.11792 0.04,0.38073 0.007,0.52548 -0.0345,0.14585 -0.0755,0.44031 -0.0765,0.6094 -0.007,0.0462 -0.007,0.0765 -0.007,0.0765 0,0.45738 0.57171,0.83566 0.98281,0.96462 0.26998,0.0876 0.54375,-0.14103 1.06557,-0.64957 l 0.17034,-0.16068 c 0.59967,-0.56075 1.92064,-1.59711 2.61034,-1.99122 0,0 0.17378,-0.0914 0.30273,-0.17412 0.51576,-0.3417 1.46575,-0.85997 2.07635,-0.73957 0.53155,0.0962 0.64468,0.43304 0.6313,0.8369 -0.0241,0.70791 -0.0852,1.12391 -0.0414,1.49006 0.11448,0.88065 0.51696,1.26745 0.89524,1.56791 0,0 0.18861,0.15343 0.17999,0.14826 0.20929,0.17757 1.1738,0.20447 1.59225,0.0655 l 0.34911,-0.21033 c 0.17757,-0.1655 0.39531,-0.36979 0.76873,-0.5425 0.27722,-0.13275 0.5863,-0.43304 0.86,-0.70188 0.25653,-0.26032 0.49262,-0.48531 0.72739,-0.59723 0.29446,-0.14481 0.86241,-0.14481 2.198,-0.12413 0.54251,0.0103 1.22611,0.0207 1.50588,-0.0138 0.27377,-0.0376 0.4172,-0.14964 0.58871,-0.28342 m -7.08906,-5.47615 -0.0679,0.40872 c -0.0607,0.57048 -0.14826,1.34531 -0.67146,1.69077 l -0.30274,0.22515 c -0.28446,0.22515 -0.57778,0.46345 -1.21273,0.29446 -0.55954,-0.1362 -0.57047,-0.20447 -0.67994,-0.36735 -0.09,-0.15447 -0.09,-0.36249 -0.13517,-0.4902 -0.0448,-0.13275 -0.0548,-0.31136 -0.39531,-0.28446 -0.0583,0.002 -0.30411,0.0862 -0.44276,0.20791 -0.1424,0.12413 -0.57292,0.36249 -1.26628,0.28446 -0.0621,-0.002 -0.0996,-0.0138 -0.13516,-0.0241 l 0.007,0.007 c -0.23964,-0.0138 -0.81011,-0.0559 -0.81011,-0.84903 0,-0.38073 0.10586,-0.66292 0.32101,-0.86121 0.2286,-0.21033 0.54006,-0.30032 0.94755,-0.25895 0,0 0.34307,0.0345 0.31756,0.0241 0.25653,0.0241 0.81131,0.05 1.04608,0.0424 0.23102,-0.007 0.32584,-0.12171 0.47438,-0.2055 0.23964,-0.13758 0.10344,-0.34542 0.47682,-0.44152 0.17999,-0.0462 0.62278,-0.17998 0.62278,-0.69942 0,-0.59847 -0.23101,-0.83932 -0.832,-0.90255 -0.922,-0.0996 -1.56912,-0.14585 -2.13959,-0.14585 -0.5182,0 -0.81862,-0.0862 -1.01447,-0.32239 -0.10964,-0.13137 -0.17516,-0.29549 -0.17516,-0.489 0,-0.0693 0.002,-0.13619 0.0241,-0.21894 0,0 0.19964,-0.53275 0.21033,-0.5571 l 0.09,-0.15688 c 0.39411,-0.67264 2.32085,-0.40262 2.47291,-0.34787 l 0.50358,0.1655 c 0,0 0.26377,0.11206 0.45979,0.0962 0.19584,-0.0241 0.23343,-0.34411 0.32963,-0.58264 0.0986,-0.23964 0.10206,-0.66536 0.0241,-0.93782 -0.0548,-0.21171 -0.2386,-0.25412 -0.35518,-0.33342 -0.12171,-0.0779 -0.23722,-0.10103 -0.47803,-0.18619 l -0.71039,-0.33101 c -0.24205,-0.13516 -0.40383,-0.22998 -0.71156,-0.27239 -0.5863,-0.0852 -1.42682,-0.002 -1.8854,0.039 0,0 -0.0765,0.0103 -0.0924,0.0103 -0.46951,0.0462 -0.69212,-0.21757 -0.74197,-0.44641 -0.0852,-0.41114 0.29445,-0.84659 0.89282,-1.05461 0.67508,-0.23101 1.31731,-0.26894 2.08852,-0.11447 0.5583,0.11447 0.9281,0.0207 1.10567,-0.0376 0.31618,-0.0962 0.65443,0.0172 1.01203,0.14481 0,0 0.63008,0.18861 0.61184,0.18482 1.02785,0.17274 1.04975,1.88416 1.04975,2.07514 0,2.00581 0.0755,2.96066 0.14481,3.18568 0.0938,0.28446 0.13137,0.82714 0.13137,1.37451 0,0.60454 -0.0414,1.2188 -0.11206,1.45598 m 2.48142,-8.4307 c 0.0986,-0.44276 0.52548,-0.81738 1.1896,-1.04364 0.64105,-0.22274 1.56184,-0.2617 1.94864,-0.20929 0.47075,0.0693 0.94147,0.0621 1.35261,0.0524 0,0 0.94513,0.0352 0.96461,0.0424 0.56437,0.10688 1.12757,0.55954 1.23584,0.9804 0.0645,0.23584 -0.007,0.46951 -0.18378,0.62643 -0.31515,0.26757 -0.85149,0.416 -1.26749,0.33929 -0.28963,-0.0438 -1.35868,-0.12758 -1.91943,-0.0876 l -0.94027,-0.0138 c -0.29446,-0.0172 -0.59843,-0.0376 -0.7809,0.007 -0.17999,0.0345 -1.08378,0.20791 -1.45113,-0.17137 -0.14343,-0.13861 -0.19722,-0.32962 -0.14826,-0.52306 m 1.43895,9.29557 c 0,0 -0.0779,0.31273 -0.0838,0.31515 0,0 -0.0345,0.24825 -0.0345,0.40748 0,0.26998 0.0486,0.50113 -0.14827,0.84052 -0.12516,0.21171 -0.32583,0.35883 -0.57171,0.42331 -0.27239,0.0583 -0.67874,0.12275 -0.98527,-0.10827 -0.13275,-0.10344 -0.29446,-0.30032 -0.30273,-0.6617 -0.0138,-0.3479 0.0986,-0.55223 0.14964,-0.78701 0.0559,-0.24584 0.0741,-0.416 0.0597,-0.69942 -0.003,-0.23585 -0.12033,-0.51696 -0.0138,-0.93783 0.13757,-0.5875 0.68115,-0.72983 0.97554,-0.72983 0.20309,0 0.80887,0 0.95362,0.63984 0.0655,0.30411 0.13274,0.6775 0,1.29786 m 0.59967,-4.10405 -0.11447,0.007 c -0.62278,0.0765 -1.55329,0.17998 -1.73335,-0.43424 -0.0276,-0.0631 -0.031,-0.13379 -0.031,-0.20068 0,-0.14343 0.0414,-0.28963 0.13516,-0.41358 0.19102,-0.30412 0.61671,-0.51817 1.05216,-0.56317 l 0.53885,-0.0996 c 0.32584,-0.0814 0.66171,-0.16068 0.98286,-0.0876 0.24446,0.0645 0.50844,0.0345 0.77483,0.0172 l 0.56316,-0.0207 c 0,0 0.5413,-0.0138 0.52913,-0.0138 0.56196,-0.031 0.90741,-0.0548 1.06678,0.18722 l 0.0679,0.20792 -0.0376,0.16309 c -0.10206,0.22377 -0.34307,0.35276 -0.61791,0.50479 -0.16068,0.0862 -0.36008,0.19584 -0.42697,0.28721 -0.30756,0.39656 -0.70794,0.5632 -1.19935,0.50724 -0.38438,-0.0486 -1.13488,-0.0962 -1.54967,-0.0486 m 1.29303,5.72182 c -0.0103,-0.37828 0.0986,-0.47924 0.0679,-1.01688 -0.031,-0.50724 0.10965,-0.56806 0.38073,-0.74077 0.25411,-0.16551 0.58874,-0.13034 0.90013,0.0838 0.22998,0.14965 0.26998,0.14586 0.37463,0.49507 0.0607,0.19584 0.12413,0.28963 0.17895,0.37587 0.05,0.0914 0.11792,0.13033 0.11792,0.13033 0.11447,0.11309 0.29687,0.31997 0.28343,0.53765 -0.0138,0.21894 -0.0366,0.22998 -0.15103,0.36004 -0.36855,0.42938 -1.2188,0.56195 -1.7321,0.34066 -0.2748,-0.11792 -0.41114,-0.29929 -0.42086,-0.56565"
       style="fill:#e12021;fill-opacity:1;fill-rule:nonzero;stroke:none;stroke-width:1.21638" />
    <path
       id="path20"
       d="m 235.48937,114.30489 0.10344,-0.27963 c 0.14102,-0.38193 0.14102,-0.38193 -0.0486,-0.8551 l -0.1424,-0.3917 c -0.10689,-0.31376 -0.13516,-0.40138 -0.61671,-0.67994 l -0.62157,-0.44031 c -0.27377,-0.2286 -0.45007,-0.37711 -1.40493,-0.58144 -0.94754,-0.20067 -0.98526,-0.20067 -1.30758,-0.1593 l -0.9342,0.0755 -1.28328,0.0779 c -0.49141,0.0438 -0.78576,0.0655 -1.16649,-0.0352 0,0 -0.28205,-0.0924 -0.28963,-0.0997 -0.26378,-0.10102 -0.56075,-0.2117 -1.62508,-0.2117 -0.9561,0 -1.65549,0.27239 -2.16638,0.46344 l -0.65439,0.21516 c -0.48048,0.089 -1.18963,0.48779 -1.51926,0.86 -0.35518,0.3941 -0.46955,0.58992 -0.4379,0.77604 0.0352,0.25308 -0.031,0.40504 -0.15585,0.46586 -0.2848,0.14585 -0.72132,-0.0986 -0.94513,-0.41114 0,0 -0.22136,-0.27377 -0.22515,-0.27963 -0.12413,-0.14585 -0.22861,-0.26378 -0.35153,-0.57899 l -0.0607,-0.16413 c -0.0997,-0.28722 -0.13137,-0.36735 -0.43062,-0.56075 0,0 -0.76267,-0.35276 -0.77604,-0.36128 -0.34911,-0.13378 -0.66778,-0.26894 -0.84052,-0.41721 -0.13137,-0.12033 -0.27239,-0.12412 -0.68726,-0.14585 l -0.41965,-0.0207 c -0.4087,-0.0241 -0.84659,-0.16551 -1.33435,-0.31032 l -1.25045,-0.33687 c -1.06067,-0.19102 -2.40356,-0.17654 -3.03607,0.43548 -0.51575,0.50965 -0.48168,0.63981 -0.48168,0.87579 0,0.32963 0.0972,1.33193 0.29929,1.61291 l 0.0707,0.11688 c 0.26032,0.3637 0.64471,0.91959 1.75158,1.39151 0.86121,0.36615 1.21032,0.44155 1.52657,0.50845 0,0 0.37952,0.0924 0.38314,0.0924 0.45738,0.12896 1.56915,0.0693 2.01677,-0.16895 l 0.13758,-0.0693 c 0.51209,-0.26997 0.99013,-0.52426 1.4694,-0.47316 l 0.39531,-0.051 c 0.20205,-0.0486 0.45979,-0.0172 0.59968,0.10585 0.14102,0.11792 0.30273,0.12413 0.45006,0.0438 0.14827,-0.0838 0.23343,-0.14964 0.64468,-0.10206 l 0.10447,0.007 c 0.27136,0.0352 0.32963,0.0621 0.51575,0.26274 l 0.0914,0.0996 c 0.0472,0.0462 0.1155,0.0534 0.30894,0.0462 0.19343,0 0.43669,-0.007 0.65443,0.17619 0,0 0.19102,0.21792 0.19722,0.23102 0.17654,0.22136 0.31515,0.39166 0.79914,0.33687 0.38073,-0.0524 0.59116,-0.15688 0.81984,-0.27481 0.25411,-0.13757 0.53033,-0.27859 0.99864,-0.27859 0,0 0.45252,-0.12896 0.45979,-0.12896 0.2786,-0.10827 0.61795,-0.2517 0.99258,-0.14102 0.47317,0.13757 0.63129,0.12171 0.84296,0.0962 0,0 0.60454,-0.007 0.59237,-0.007 l 0.86121,0.031 c 0,0 0.7529,0.0172 0.76021,0.0172 0,0 1.08623,-0.0345 1.13002,-0.0414 l 1.27234,-0.0376 c 0.6313,0.0448 1.91943,0.0276 2.21989,-0.0172 0.25309,-0.0345 0.46586,0.0241 0.66657,0.0803 0,0 0.37828,0.0862 0.40993,0.089 0.33687,0.0376 0.46952,0.0597 0.66778,-0.47682"
       style="fill:#e12021;fill-opacity:1;fill-rule:nonzero;stroke:none;stroke-width:1.21638" />
    <path
       id="path21"
       d="m 237.35315,119.8461 0.0276,-0.17998 c 0.0548,-0.35032 0.11448,-0.98161 0.26998,-1.31003 0.007,-0.0241 0.0207,-0.0486 0.0207,-0.0741 0,-0.0276 -0.003,-0.0448 -0.0207,-0.0683 -0.0659,-0.12757 -0.28722,-0.2517 -0.58144,-0.31756 -0.66412,-0.15309 -1.36599,-0.0914 -1.95349,0 -0.38925,0.0559 -0.86363,0.0376 -1.27842,0.0138 l -0.81131,-0.007 h -0.0669 c -0.52306,0.05 -1.06798,0.0996 -1.95108,-0.21412 -0.56075,-0.20068 -1.59467,-0.32963 -1.86713,-0.28481 -0.35276,0.0534 -1.71751,0.14965 -2.29409,0.0486 -0.45858,-0.0814 -0.98406,-0.0486 -1.65183,-0.0103 l -0.22998,0.0103 c 0,0 -1.08743,0.17999 -1.10812,0.17999 0,0 -0.4841,0.10723 -0.49386,0.11447 0,0 -0.55465,0.0659 -0.55709,0.0659 -0.26171,0.0207 -0.64954,0.09 -0.72619,0.18377 -0.25894,0.29446 -0.55464,0.42814 -0.96578,0.5352 -0.45979,0.1193 -1.04123,-0.1424 -1.74066,-0.77242 -0.44882,-0.41721 -0.82227,-0.388 -1.29786,-0.35518 l -0.31514,0.0172 c -0.71767,0.031 -1.60684,0.0828 -2.23693,-0.0172 0,0 -0.52547,-0.10688 -0.53885,-0.10688 -0.44397,-0.10103 -0.90621,-0.20688 -1.4913,-0.079 0,0 -0.4683,0.079 -0.47437,0.079 -0.27377,0.0376 -0.43545,0.0621 -1.5606,0.47682 -0.46465,0.16309 -0.74687,0.39531 -0.85149,0.68846 -0.12274,0.31274 -0.0524,0.69943 0.19826,1.16408 0.2493,0.45128 0.39773,1.07771 0.39773,1.6348 0,0.37707 0.37221,0.69212 0.71891,0.77239 0.33342,0.0828 0.79914,-0.0583 1.09715,-0.24584 0.29308,-0.1762 0.46345,-0.14965 0.69212,-0.10448 l 0.2786,0.05 c 0.37587,0.0414 0.73832,-0.0452 0.99744,-0.24585 0.38921,-0.28721 1.11418,-0.58264 1.94863,-0.54009 0.30757,0.0241 0.53762,0.13033 0.69574,0.31377 0.2517,0.31859 0.17516,0.77849 0.10965,1.13732 l -0.0103,0.10827 c -0.0972,0.59605 -0.38679,1.06557 -0.6386,1.48157 -0.31032,0.51451 -0.88793,1.00957 -1.29541,1.338 -0.43549,0.35276 -0.91717,0.42575 -1.35262,0.49144 0,0 -0.32825,0.0548 -0.3186,0.0548 l -0.2386,0.0452 c -0.46099,0.0862 -1.06795,0.24343 -1.41826,0.42697 -0.48534,0.24929 -0.89893,0.13378 -1.08261,1.36113 -0.0424,0.26653 -0.15688,0.49872 -0.12412,0.87214 l 0.0741,0.59967 c 0,0.61185 0.461,1.05461 0.84903,1.37451 0.32825,0.26377 1.25042,0.17137 1.80389,0.12172 l 0.33343,-0.031 c 0.23825,-0.0172 0.55709,-0.16172 0.76387,-0.31377 0.23342,-0.17033 0.3479,-0.33825 1.29544,-0.78822 1.39275,-0.67267 1.57643,-0.94878 1.88175,-1.32585 0.089,-0.10586 0.13861,-0.24102 0.22377,-0.3637 0.0779,-0.12413 0.21171,-0.32825 0.22516,-0.55223 0.0138,-0.26653 0.12171,-0.58144 0.31515,-0.92444 0.17757,-0.3017 0.22618,-0.5352 0.31273,-0.83811 l 0.26653,-0.72615 c 0.10344,-0.20067 0.12896,-0.77728 0.12896,-1.31734 0,-0.20792 -0.003,-0.40507 -0.0138,-0.58875 0.0138,-0.51085 -0.0138,-0.5875 0.0755,-0.87093 0.15206,-0.51937 0.57051,-0.58505 1.0522,-0.65439 0,0 0.23584,-0.0352 0.23101,-0.0352 0.65078,-0.10344 0.84783,-0.0924 1.31493,0.0572 0.35759,0.12896 1.30152,0.0572 1.76738,-0.0876 0.49872,-0.14826 0.95975,-0.26273 2.0788,-0.26273 1.02174,0 1.36599,0.56074 1.54722,0.85996 0,0 0.11447,0.17033 0.10689,0.15309 0.36369,0.4148 0.388,1.87809 0.388,1.87934 l 0.0376,0.49627 0.0104,0.80766 c -0.0486,0.49871 0.14102,1.31734 0.18964,1.4694 0.13136,0.4403 0.19722,1.14094 0.0755,1.59832 -0.0938,0.38314 10e-4,0.9524 0.20791,1.28448 0.20447,0.33204 0.35394,0.64712 0.35394,1.05826 0,0.18964 0.0655,0.5875 0.24584,0.90986 0,0 0.16171,0.54251 0.16551,0.55344 0,0 0.33204,0.44275 0.5936,0.51209 0.0276,0.007 0.0559,0.0103 0.0779,0.0103 0.21653,0 0.34907,-0.24585 0.37342,-0.32963 0,0 0.0755,-0.19343 0.0803,-0.20309 0,0 0.0755,-0.15585 0.0779,-0.1655 0.10103,-0.21516 0.2386,-0.51331 0.27963,-0.78215 0,0 0.14585,-0.84052 0.14585,-0.83076 v -0.46103 c 0.0103,-0.0438 0.0172,-0.29067 0.0172,-0.34666 0,-0.31618 -0.007,-0.57292 -0.17274,-1.00472 -0.0996,-0.25308 -0.14585,-0.416 -0.14585,-0.64467 0,-0.14826 0.0241,-0.2979 0.039,-0.43183 l -0.0476,-0.52547 c -0.0486,-0.20929 -0.0596,-0.5644 -0.0596,-0.94513 0,-0.63616 -0.0345,-1.17622 0.0345,-1.55695 0.0207,-0.12171 0.031,-0.24929 0.031,-0.38683 0,-0.48896 0.0414,-0.57778 -0.0996,-0.96823 -0.0828,-0.23826 -0.13861,-1.01323 -0.13861,-1.16284 0,-0.16792 0.0597,-0.3079 0.11448,-0.44034 0,0 0.0583,-0.12999 0.0583,-0.12413 0.13033,-0.38683 0.58143,-0.65684 1.01688,-0.65684 0.34911,0 0.79918,0.31514 1.23828,0.62157 l 0.19826,0.13861 c 0.36614,0.24584 1.68104,0.24584 2.17124,0.24584 0.38073,0 0.73711,-0.30411 1.05826,-0.57654 0,0 0.23826,-0.19343 0.23826,-0.19481 0.32239,-0.25791 0.5644,-0.78942 0.59967,-1.06554"
       style="fill:#e12021;fill-opacity:1;fill-rule:nonzero;stroke:none;stroke-width:1.21638" />
    <path
       id="path22"
       d="m 85.503745,107.34452 c -11.168796,0 -20.233243,9.05714 -20.233243,20.23324 0,11.17483 9.064447,20.23076 20.233243,20.23076 5.386121,0 8.979316,-1.87443 10.460853,-2.78791 3.877793,-2.39019 6.119582,-5.80457 5.496802,-9.09607 -0.52789,-2.80739 -3.031206,-4.93609 -6.529513,-6.01134 -0.277219,-0.0828 -0.604538,-0.17413 -0.977956,-0.26757 1.569116,-0.91231 2.615205,-2.21262 2.848738,-3.76225 0.531578,-3.59806 -3.527477,-7.18394 -9.066861,-8.00498 -4.92633,-0.73349 -9.042553,-0.33687 -10.646976,-0.16895 v 6.36773 c 2.921766,-0.41479 6.823902,-0.36976 9.755358,0.0559 2.543451,0.36855 4.329101,1.34896 4.443437,2.64561 0.03448,0.35639 -0.0693,0.71888 -0.288253,1.06554 -0.614261,1.01447 -1.870781,0.84662 -2.874287,0.72739 -3.256257,-0.39531 -7.176633,-0.55344 -11.03622,0.003 v 6.51248 c 3.522649,-0.41845 9.600887,-0.44276 12.562753,0.11688 2.61886,0.50117 4.433714,1.63363 4.572358,3.10058 0.06206,0.64588 -0.211707,1.293 -0.744423,1.89509 -1.052157,1.18232 -3.759802,2.36709 -7.950226,2.36709 -8.265304,0 -14.972388,-6.70226 -14.972388,-14.96998 0,-8.27499 6.707084,-14.97238 14.972388,-14.97238 8.271373,0 14.968731,6.69739 14.968731,14.97238 0,0.55348 -0.0276,1.10085 -0.09,1.64336 1.00837,0.53275 2.72954,1.5679 4.56505,3.86686 0.50603,-1.7589 0.76511,-3.61264 0.76511,-5.53087 0,-11.17611 -9.055931,-20.23324 -20.23445,-20.23324"
       style="fill:#e12021;fill-opacity:1;fill-rule:nonzero;stroke:none;stroke-width:1.21638" />
  </g>
</svg>
