<?xml version="1.0" encoding="UTF-8" standalone="no"?>
<!-- Created with Inkscape (http://www.inkscape.org/) -->

<svg
   width="163.20724mm"
   height="42.746181mm"
   viewBox="0 0 163.20725 42.746182"
   version="1.1"
   id="svg1"
   xmlns="http://www.w3.org/2000/svg"
   xmlns:svg="http://www.w3.org/2000/svg">
  <defs
     id="defs1">
    <clipPath
       clipPathUnits="userSpaceOnUse"
       id="clipPath413">
      <path
         d="M 0.00232843,0.99688851 H 0.97845481 V 7.2221961e-4 H 0.00232843 Z"
         id="path413" />
    </clipPath>
    <clipPath
       clipPathUnits="userSpaceOnUse"
       id="clipPath414">
      <path
         d="M 0.01895638,0.99688851 H 0.97881365 V 7.2221961e-4 H 0.01895638 Z"
         id="path414" />
    </clipPath>
    <linearGradient
       x1="0"
       y1="0"
       x2="1"
       y2="0"
       gradientUnits="userSpaceOnUse"
       gradientTransform="matrix(24.304095,32.694561,-32.694561,24.304095,18.630925,15.002743)"
       spreadMethod="pad"
       id="linearGradient418">
      <stop
         style="stop-opacity:1;stop-color:#ffffff"
         offset="0"
         id="stop414" />
      <stop
         style="stop-opacity:1;stop-color:#ffffff"
         offset="0"
         id="stop415" />
      <stop
         style="stop-opacity:1;stop-color:#a69fa5"
         offset="0.70399"
         id="stop416" />
      <stop
         style="stop-opacity:1;stop-color:#dcd6d8"
         offset="0.862069"
         id="stop417" />
      <stop
         style="stop-opacity:1;stop-color:#dcd6d8"
         offset="1"
         id="stop418" />
    </linearGradient>
  </defs>
  <g
     id="g16"
     transform="scale(0.712)">
    <path
       id="path412"
       d="m 3.5532207,57.632433 c -1.640415,-0.0635 -3.032125,-1.46224 -3.09033,-3.0974 -0.615595,-16.99505 -0.615595,-33.99189 -0.0095,-50.990495 0.0652,-1.63685 1.455205,-3.03385 3.097395,-3.0921 16.9950593,-0.60325 33.9954243,-0.60325 50.9887143,0 1.6404,0.058 3.0339,1.45525 3.1009,3.0921 0.6068,16.998605 0.6068,33.995455 0,50.990495 -0.067,1.63516 -1.4605,3.0339 -3.1009,3.0974 -16.99329,0.605 -33.993655,0.605 -50.9869543,0"
       style="fill:#0048bb;fill-opacity:1;fill-rule:nonzero;stroke:none;stroke-width:1.76389" />
    <path
       id="path418"
       d="m 6.5712207,28.491193 c 14.4603643,-3.6971 29.1323793,-3.71121 43.9684543,-0.04 v 0 H 39.65296 l -2.137835,0.083 c -10.689165,0.3775 -17.580675,1.935 -12.83229,5.27754 v 0 c 5.730875,4.01106 -4.0005,6.3165 -5.857875,6.85625 v 0 l 9.8178,9.8901 22.0345,-22.07155 c -0.046,-0.015 -0.0917,-0.025 -0.1376,-0.035 v 0 h 0.1306 C 43.33777,21.083793 35.973525,13.760083 28.64281,6.387038 v 0 z m 44.0989893,-0.04 c 0.0065,0.005 0.014,0.015 0.021,0.02 v 0 l -0.014,0.015 c 0.012,0 0.0245,0.004 0.0355,0.005 v 0 c -0.0095,-0.005 -0.014,-0.015 -0.021,-0.025 v 0 l 0.021,-0.02 z"
       style="fill:url(#linearGradient418);stroke:none;stroke-width:1.76389" />
    <g
       id="g14">
      <path
         style="fill:#0048bb;fill-opacity:1;fill-rule:nonzero;stroke:none;stroke-width:1.76389"
         d="M 89.22705,2.637938 V 30.101693 H 77.1127 v 3.01974 h 12.11435 4.7731 14.829 l 0.4215,-3.01974 h -15.2506 v -14.3528 h 12.37365 l 0.42,-2.9933 H 94.0002 V 3.332888 Z"
         id="path399" />
      <path
         style="fill:#0048bb;fill-opacity:1;fill-rule:nonzero;stroke:none;stroke-width:1.76389"
         d="m 227.8599,3.726188 h -16.61585 v 2.9969 h 16.61585 z"
         id="path400" />
      <path
         style="fill:#0048bb;fill-opacity:1;fill-rule:nonzero;stroke:none;stroke-width:1.76389"
         d="m 229.2234,12.171733 h -5.0359 -4.5032 -9.7984 v 2.98981 h 9.7984 v 14.04409 c 0,0.2645 -0.099,0.545 -0.312,0.762 -0.2065,0.2115 -0.5168,0.3265 -0.75845,0.3265 -2.7499,0 -5.8614,-0.215 -5.8614,-0.215 v 3.06565 h 6.9321 2.67405 c 0.471,0 0.9331,-0.189 1.2841,-0.538 0.372,-0.351 0.54505,-0.81315 0.54505,-1.28585 v -16.159 h 5.0359 z"
         id="path401" />
      <path
         style="fill:#0048bb;fill-opacity:1;fill-rule:nonzero;stroke:none;stroke-width:1.76389"
         d="m 197.8985,9.458888 v 2.577045 c 5.3816,-0.62619 9.75255,-4.716645 11.0384,-10.078895 h -4.3656 c -1.0848,3.52075 -3.5137,5.8967 -6.6728,7.50185"
         id="path402" />
      <path
         style="fill:#0048bb;fill-opacity:1;fill-rule:nonzero;stroke:none;stroke-width:1.76389"
         d="m 204.5713,10.467838 c -1.0848,3.503055 -3.5137,5.907245 -6.6728,7.470055 v 2.58584 c 1.3388,-0.136 2.62995,-0.508 3.81,-1.06359 v 13.67015 h 4.0887 v -16.71815 c 1.49575,-1.63866 2.5929,-3.66715 3.1397,-5.944305 z"
         id="path403" />
      <path
         style="fill:#0048bb;fill-opacity:1;fill-rule:nonzero;stroke:none;stroke-width:1.76389"
         d="m 183.41695,26.353383 c 0.99485,-0.4955 1.9703,-1.17294 2.85045,-2.0549 1.33525,-1.3282 2.2137,-2.87339 2.5947,-4.36034 h -3.6742 c -0.4585,1.2506 -1.26295,2.53825 -2.38125,3.6495 -0.275,0.277 -0.56975,0.5309 -0.85725,0.7673 -1.0442,-1.6757 -1.80445,-3.5754 -2.30185,-5.6427 h 5.76435 c 0.4425,0 0.8696,-0.166 1.19945,-0.4955 0.3245,-0.3405 0.4885,-0.77081 0.4885,-1.19415 v -4.89125 -2.672305 -3.5719 -2.8328 h -3.6689 -9.40325 -3.95465 v 2.8328 3.5719 2.672305 17.4166 3.59659 c 0.03,0.069 2.12725,-0.56444 2.2913,-0.61559 2.0708,-0.58385 3.9211,-1.5575 5.75025,-2.6582 v -3.28965 c -1.1377,0.68085 -2.5259,1.2718 -4.0869,1.8415 v -9.7102 h 1.651 c 1.38285,7.26545 6.7451,12.8905 13.4655,13.9665 v -2.4765 c -2.3001,-0.79025 -4.1998,-2.12725 -5.72735,-3.84885 m -9.38905,-10.50585 v -3.71651 h 9.40325 v 2.7587 c 0,0.231 -0.104,0.492 -0.2945,0.6738 -0.196,0.194 -0.4445,0.284 -0.69495,0.284 h -7.08205 z m 0,-9.960705 h 9.40325 v 3.5719 h -9.40325 z"
         id="path404" />
      <path
         style="fill:#0048bb;fill-opacity:1;fill-rule:nonzero;stroke:none;stroke-width:1.76389"
         d="m 165.18365,21.573293 h 3.4008 v -2.72171 h -3.4008 v -4.76779 h 2.7164 v -2.7146 h -2.7164 -4.094 -2.7252 v 2.7146 h 2.7252 v 4.76779 h -3.5507 v 2.72171 h 3.5507 v 7.95865 2.9122 0.67729 c 0.035,0.069 0.62795,-0.025 2.2913,-0.60145 1.6651,-0.59799 3.38315,-1.42169 5.2035,-2.54179 v -3.2773 c -1.0954,0.66325 -2.0038,1.1377 -3.4008,1.63515 z"
         id="path405" />
      <path
         style="fill:#0048bb;fill-opacity:1;fill-rule:nonzero;stroke:none;stroke-width:1.76389"
         d="m 164.80795,2.533838 c 0.04,-0.217 0.0865,-0.3845 0.1255,-0.5609 h -3.9899 c -0.04,0.1765 -0.076,0.344 -0.106,0.5609 -0.6103,2.57705 -1.87145,4.7678 -3.42015,6.22655 v 1.92615 c 1.79565,-0.136 3.57185,-1.24355 4.96885,-2.99685 h 6.3359 v -2.7358 h -4.71845 c 0.337,-0.7549 0.6121,-1.5716 0.80435,-2.42005"
         id="path406" />
      <path
         style="fill:#0048bb;fill-opacity:1;fill-rule:nonzero;stroke:none;stroke-width:1.76389"
         d="m 146.4335,9.383038 h -0.56975 -3.3902 -10.7262 -2.28425 -1.7656 l -0.8502,8.306155 h -2.0585 v 2.7111 h 1.7833 l -0.6879,6.61104 c -0.03,0.38801 0.0845,0.77966 0.3705,1.09361 0.277,0.3175 0.66675,0.478 1.0548,0.478 h 15.16415 v 1.43585 l -0.1445,0.3825 -0.381,0.1535 c -3.489,0 -7.43835,-0.365 -7.43835,-0.365 v 2.9404 h 10.5745 c 0.342,0 0.695,-0.1215 0.9543,-0.381 0.2505,-0.268 0.395,-0.59445 0.395,-0.949 v -3.21735 h 1.92265 v -2.65285 h -1.92265 v -5.5298 h 2.5929 v -2.7111 h -2.5929 z m -3.95995,16.547055 h -3.2861 c -0.2065,-1.81155 -0.54505,-3.34261 -1.15535,-4.45206 h -3.73945 c 0.61385,1.10945 0.9666,2.6405 1.16945,4.45206 h -4.6302 c -0.201,0 -0.3985,-0.0795 -0.51505,-0.222 -0.1555,-0.164 -0.2065,-0.35301 -0.173,-0.56095 l 0.464,-4.7466 h 11.86565 z m -10.9996,-13.8395 h 10.9996 v 5.5986 h -3.2755 c -0.1995,-1.76035 -0.63855,-3.28615 -1.27355,-4.43795 h -3.72885 c 0.62615,1.1518 1.083,2.6776 1.2753,4.43795 h -4.57555 z"
         id="path407" />
      <path
         style="fill:#0048bb;fill-opacity:1;fill-rule:nonzero;stroke:none;stroke-width:1.76389"
         d="m 123.69875,9.310688 c -0.441,-2.5188 -1.23475,-4.8013 -2.27015,-6.67275 h -3.82235 c 1.0354,1.87145 1.8221,4.15395 2.26485,6.67275 z"
         id="path408" />
      <path
         style="fill:#0048bb;fill-opacity:1;fill-rule:nonzero;stroke:none;stroke-width:1.76389"
         d="m 118.07545,10.820588 c 1.01955,1.843305 1.80625,4.122195 2.2578,6.653405 h 3.81 c -0.4355,-2.53121 -1.22415,-4.8101 -2.256,-6.653405 z"
         id="path409" />
      <path
         style="fill:#0048bb;fill-opacity:1;fill-rule:nonzero;stroke:none;stroke-width:1.76389"
         d="m 124.7888,9.885738 c 1.3053,-0.3105 2.68645,-0.8343 4.0217,-1.6404 0.66675,-0.3915 1.2753,-0.80965 1.84855,-1.2524 h 17.5542 v -2.5823 H 133.1461 c 0.58035,-0.81845 0.9737,-1.6616 1.1642,-2.4377 h -4.34095 c -0.665,1.95615 -2.54,4.1169 -5.207,5.71675 h 0.025 z"
         id="path410" />
      <path
         style="fill:#0048bb;fill-opacity:1;fill-rule:nonzero;stroke:none;stroke-width:1.76389"
         d="m 116.95715,32.749283 h 4.2951 c 1.68275,-3.6742 2.7728,-8.50019 2.83805,-13.35439 h -3.77645 c -0.5733,5.13464 -1.6616,9.6802 -3.3567,13.35439"
         id="path411" />
    </g>
    <g
       id="g15">
      <path
         style="fill:#0048bb;fill-opacity:1;fill-rule:nonzero;stroke:none;stroke-width:1.76389"
         d="m 86.68745,54.124783 c 0.4355,-0.3775 0.7655,-0.85725 0.9666,-1.40935 0.208,-0.53795 0.3085,-1.14475 0.3085,-1.8009 0,-0.64385 -0.0935,-1.2065 -0.2735,-1.6669 -0.1765,-0.485 -0.418,-0.8731 -0.7285,-1.1924 -0.3085,-0.321 -0.65795,-0.56265 -1.0372,-0.7267 l -0.2415,-0.102 0.1905,-0.104 c 0.36,-0.2115 0.65265,-0.455 0.8996,-0.7479 0.2575,-0.3265 0.457,-0.7144 0.568,-1.1148 0.134,-0.4125 0.2045,-0.919 0.2045,-1.5046 0,-0.5944 -0.0845,-1.1236 -0.254,-1.61395 -0.178,-0.4905 -0.4745,-0.93665 -0.88375,-1.31055 -0.4055,-0.36 -0.9419,-0.6421 -1.5875,-0.8361 -0.64205,-0.185 -1.42345,-0.2735 -2.31775,-0.2735 H 77.5132 v 15.59985 h 5.10115 c 0.9331,0 1.7392,-0.1025 2.39185,-0.307 0.68085,-0.203 1.24355,-0.50095 1.681,-0.88901 m -2.3917,-1.71619 c -0.2645,0.155 -0.56445,0.256 -0.94545,0.3035 -0.33,0.0635 -0.70905,0.0915 -1.2259,0.0915 H 80.295 v -4.21215 h 1.711 c 0.425,0 0.8396,0.04 1.22765,0.1075 0.3615,0.067 0.6826,0.1885 0.96485,0.3545 0.268,0.162 0.478,0.372 0.62085,0.6244 0.157,0.268 0.233,0.6103 0.233,1.05125 0,0.4535 -0.074,0.82025 -0.217,1.0848 -0.1305,0.263 -0.3105,0.455 -0.53975,0.59445 m -4.0005,-10.1794 h 1.6263 c 0.263,0 0.57505,0.01 0.94015,0.03 0.3105,0.02 0.61915,0.083 0.92075,0.1975 0.2665,0.1005 0.4905,0.268 0.66675,0.487 0.1675,0.2065 0.245,0.5239 0.245,0.98075 0,0.4725 -0.074,0.83785 -0.226,1.0936 -0.166,0.277 -0.3775,0.492 -0.62085,0.63675 -0.2875,0.1675 -0.5821,0.2785 -0.8996,0.33 -0.36,0.0705 -0.71085,0.1005 -1.0689,0.1005 h -1.584 z"
         id="path5" />
      <path
         style="fill:#0048bb;fill-opacity:1;fill-rule:nonzero;stroke:none;stroke-width:1.76389"
         d="m 90.7141,54.783933 c 0.4375,0.2965 0.9666,0.50275 1.5681,0.6121 0.57325,0.1005 1.2065,0.15 1.8891,0.15 0.65795,0 1.37055,-0.01 2.11845,-0.04 0.6773,-0.025 1.45875,-0.09 2.3936,-0.21 l 0.3455,-0.05 v -7.97985 c 0,-0.859 -0.1235,-1.5787 -0.365,-2.1237 -0.2645,-0.5786 -0.6262,-0.99665 -1.10595,-1.2824 -0.443,-0.2785 -0.9878,-0.4655 -1.62105,-0.56265 -0.605,-0.0775 -1.2682,-0.1145 -1.972,-0.1145 -1.18535,0 -2.4183,0.141 -3.6654,0.4165 l -0.314,0.067 v 2.45535 l 0.4765,-0.0915 c 0.55035,-0.113 1.0883,-0.2255 1.6704,-0.321 0.5556,-0.0795 1.10065,-0.1235 1.6175,-0.1235 0.6685,0 1.20295,0.045 1.5875,0.1235 0.291,0.06 0.50975,0.1675 0.63675,0.321 0.136,0.148 0.222,0.3795 0.247,0.67205 0.03,0.261 0.05,0.58735 0.0545,1.0054 -0.1675,-0.004 -0.3315,-0.01 -0.4815,-0.02 l -0.0775,-0.01 c -0.24,-0.015 -0.469,-0.03 -0.68795,-0.03 -0.4745,0 -1.01775,0.02 -1.7515,0.053 -0.66675,0.04 -1.3,0.178 -1.8768,0.4165 -0.6156,0.2575 -1.1183,0.6456 -1.4993,1.1571 -0.411,0.5327 -0.6209,1.2894 -0.6209,2.2419 0,0.77435 0.127,1.44465 0.3705,1.99145 0.2505,0.538 0.61035,0.96305 1.06365,1.2753 m 1.55025,-3.99529 c 0.106,-0.185 0.2735,-0.3405 0.4905,-0.45 0.238,-0.1235 0.53095,-0.21001 0.90135,-0.25751 0.388,-0.045 0.81845,-0.0705 1.3141,-0.0705 0.0885,0 0.6897,0.03 1.11655,0.04 l 0.2115,0.005 v 3.0956 l -0.77435,0.045 c -0.247,0.03 -0.499,0.035 -0.73375,0.035 -0.3915,0 -0.74965,-0.02 -1.0901,-0.0635 -0.328,-0.03 -0.6156,-0.106 -0.86785,-0.226 -0.2275,-0.1075 -0.402,-0.2505 -0.53445,-0.464 -0.1325,-0.2115 -0.1975,-0.508 -0.1975,-0.8978 0,-0.335 0.0545,-0.59795 0.164,-0.79375"
         id="path4" />
      <path
         style="fill:#0048bb;fill-opacity:1;fill-rule:nonzero;stroke:none;stroke-width:1.76389"
         d="m 105.2573,45.851333 c 0.3015,-0.058 0.53445,-0.0885 0.7267,-0.0885 0.365,0 0.6456,0.0565 0.8202,0.1695 0.1675,0.102 0.2895,0.2295 0.367,0.395 0.0865,0.178 0.134,0.3795 0.1535,0.6491 0.025,0.337 0.03,0.6156 0.03,0.85725 v 7.49125 h 2.7464 v -8.3573 c 0,-0.6456 -0.097,-1.22235 -0.3,-1.7092 -0.21,-0.487 -0.48,-0.89255 -0.79725,-1.19415 -0.3405,-0.3105 -0.7232,-0.53625 -1.14125,-0.6703 -0.76375,-0.254 -1.5716,-0.233 -2.2119,-0.143 -0.337,0.04 -0.65615,0.1075 -0.93665,0.201 -0.3225,0.0915 -0.65615,0.233 -1.0354,0.3935 -0.2255,0.095 -0.471,0.21 -0.7426,0.3385 v -0.78495 h -2.577 v 11.92565 h 2.71635 v -8.68714 l 0.50095,-0.2205 c 0.277,-0.12 0.55915,-0.222 0.82725,-0.314 0.284,-0.0935 0.5592,-0.1675 0.852,-0.25251"
         id="path3" />
      <path
         style="fill:#0048bb;fill-opacity:1;fill-rule:nonzero;stroke:none;stroke-width:1.76389"
         d="m 122.45875,55.325183 -6.0766,-6.7257 5.62325,-5.1788 h -3.77645 l -4.10285,4.11165 v -8.8724 h -2.69345 v 16.66525 h 2.69345 v -5.17175 l 4.48385,5.17175 z"
         id="path2" />
      <path
         style="fill:#0048bb;fill-opacity:1;fill-rule:nonzero;stroke:none;stroke-width:1.76389"
         d="m 128.07345,55.129483 c 0.68615,0.3105 1.45345,0.462 2.3442,0.462 0.8149,0 1.56455,-0.15549 2.2278,-0.462 0.6773,-0.31399 1.2647,-0.7567 1.75155,-1.3141 0.50095,-0.5574 0.87665,-1.2118 1.1553,-2.01434 0.261,-0.7532 0.3935,-1.59811 0.3935,-2.49946 0,-0.956 -0.118,-1.778 -0.36,-2.5294 -0.252,-0.75495 -0.61735,-1.4129 -1.09185,-1.95614 -0.494,-0.53625 -1.08125,-0.95075 -1.748,-1.24181 -0.67735,-0.282 -1.4605,-0.427 -2.32835,-0.427 -0.859,0 -1.64745,0.1445 -2.33365,0.4285 -0.672,0.2895 -1.26645,0.7073 -1.75855,1.2488 -0.4585,0.5292 -0.8167,1.18885 -1.0672,1.94735 -0.2505,0.7514 -0.3705,1.5734 -0.3705,2.5294 0,0.91546 0.12,1.7586 0.358,2.49945 0.231,0.7479 0.59085,1.427 1.06535,2.00905 0.4885,0.5627 1.08125,1.00545 1.76215,1.3194 m 0.38275,-8.6639 c 0.4425,-0.61915 1.10245,-0.93665 1.96145,-0.93665 0.8731,0 1.51515,0.3035 1.9579,0.93485 0.469,0.665 0.71085,1.62281 0.71085,2.8381 0,1.22591 -0.2415,2.21371 -0.71085,2.92985 -0.4425,0.65971 -1.0848,0.98425 -1.9579,0.98425 -0.87135,0 -1.5099,-0.32449 -1.95615,-0.98074 -0.4675,-0.71965 -0.70025,-1.70745 -0.70025,-2.93336 0,-1.21884 0.231,-2.17484 0.69495,-2.8363"
         id="path1" />
      <path
         style="fill:#0048bb;fill-opacity:1;fill-rule:nonzero;stroke:none;stroke-width:1.76389"
         d="m 137.88925,55.325283 h 2.73755 v -9.56204 h 2.9598 v -2.3636 h -2.9598 v -0.55211 c 0,-0.5327 0.01,-0.94189 0.05,-1.2171 0.035,-0.2575 0.1005,-0.3985 0.1395,-0.457 l 0.2505,-0.10749 c 0.21,-0.025 0.5027,-0.04 0.8449,-0.04 h 1.67745 v -2.36539 h -2.25955 c -0.3475,0 -0.7038,0.025 -1.14125,0.0705 -0.4515,0.05 -0.8643,0.24151 -1.2294,0.58206 -0.1995,0.1995 -0.367,0.40199 -0.5239,0.61385 -0.1515,0.2115 -0.263,0.4425 -0.3615,0.7391 -0.069,0.275 -0.12,0.55734 -0.1445,0.85195 -0.02,0.305 -0.035,0.6738 -0.035,1.09005 v 0.792 h -1.995 v 2.36359 h 1.995 z"
         id="path419" />
      <path
         style="fill:#0048bb;fill-opacity:1;fill-rule:nonzero;stroke:none;stroke-width:1.76389"
         d="m 157.5597,47.073143 c -0.5045,-0.293 -1.07775,-0.53095 -1.7621,-0.7373 -0.5292,-0.143 -1.0654,-0.3015 -1.73215,-0.51685 -0.2295,-0.081 -0.485,-0.18 -0.725,-0.286 -0.245,-0.12 -0.4585,-0.2555 -0.6226,-0.3795 -0.1515,-0.1305 -0.284,-0.298 -0.3915,-0.508 -0.099,-0.194 -0.1465,-0.4285 -0.1465,-0.7126 0,-0.3455 0.081,-0.635 0.2485,-0.8643 0.164,-0.231 0.388,-0.409 0.6597,-0.5362 0.3035,-0.1375 0.6297,-0.238 0.97015,-0.293 0.8255,-0.1395 1.49045,-0.1165 2.38125,0.01 0.4955,0.067 1.06715,0.2065 1.5663,0.328 l 0.492,0.1255 v -2.6088 l -0.2945,-0.09 c -0.379,-0.102 -0.86075,-0.2115 -1.42345,-0.3195 -0.54505,-0.1005 -1.18005,-0.155 -1.89795,-0.155 -0.7461,0 -1.4499,0.088 -2.1043,0.263 -0.65795,0.171 -1.22415,0.4355 -1.7339,0.8149 -0.487,0.365 -0.8802,0.83785 -1.1642,1.4164 -0.284,0.5662 -0.4285,1.2506 -0.4285,2.032 0,0.95425 0.1745,1.7392 0.5221,2.3195 0.3495,0.58915 0.78845,1.04245 1.33,1.37055 0.5221,0.3315 1.1042,0.5997 1.72685,0.78495 0.5997,0.185 1.2047,0.374 1.7868,0.5468 0.2485,0.09 0.499,0.1765 0.7532,0.282 0.233,0.097 0.418,0.208 0.56795,0.3385 0.178,0.162 0.3085,0.32449 0.395,0.4885 0.1025,0.2045 0.1515,0.448 0.1515,0.7144 0,0.3795 -0.0865,0.69495 -0.2785,0.9754 -0.162,0.268 -0.3825,0.478 -0.68615,0.64915 -0.291,0.178 -0.64205,0.305 -1.0442,0.3795 -0.9419,0.192 -1.8997,0.15 -2.98805,-0.05 -0.67555,-0.134 -1.22765,-0.2575 -1.7374,-0.39 l -0.499,-0.1255 v 2.7552 l 0.2945,0.0775 c 0.3845,0.106 0.8749,0.194 1.44465,0.3015 l 0.065,0.01 c 0.62795,0.0915 1.3794,0.148 2.2331,0.148 1.25765,0 2.2578,-0.166 3.0586,-0.494 0.7708,-0.335 1.39345,-0.76375 1.85205,-1.2788 0.432,-0.51505 0.73025,-1.08125 0.8943,-1.69335 0.1445,-0.58205 0.2135,-1.1095 0.2135,-1.6069 0,-0.91015 -0.1925,-1.6492 -0.55915,-2.1925 -0.3615,-0.5415 -0.82905,-0.97365 -1.3882,-1.30175"
         id="path13" />
      <path
         style="fill:#0048bb;fill-opacity:1;fill-rule:nonzero;stroke:none;stroke-width:1.76389"
         d="m 169.0009,43.986743 c -0.3635,-0.3175 -0.73735,-0.5292 -1.1448,-0.64915 -0.409,-0.1285 -0.82195,-0.1975 -1.2153,-0.1975 -0.3685,0 -0.695,0.035 -0.9666,0.0635 -0.3105,0.04 -0.6103,0.099 -0.92255,0.1925 -0.3475,0.104 -0.672,0.2185 -0.99835,0.36 -0.1975,0.083 -0.4145,0.178 -0.6597,0.286 v -5.3146 h -2.7164 v 16.65995 h 2.7358 v -8.79475 c 0.134,-0.0725 0.2855,-0.143 0.4515,-0.215 0.2895,-0.1325 0.5521,-0.231 0.80435,-0.3175 0.323,-0.1075 0.59445,-0.1835 0.85375,-0.247 0.314,-0.067 0.5415,-0.095 0.7267,-0.095 0.323,0 0.6103,0.05 0.81315,0.1395 0.1835,0.0915 0.305,0.194 0.381,0.337 0.102,0.1675 0.164,0.353 0.196,0.57505 0.035,0.2415 0.045,0.50095 0.045,0.84135 v 7.777 h 2.7411 v -8.2832 c 0,-0.7144 -0.099,-1.34055 -0.298,-1.88385 -0.222,-0.5274 -0.4905,-0.9296 -0.82725,-1.23295"
         id="path12" />
      <path
         style="fill:#0048bb;fill-opacity:1;fill-rule:nonzero;stroke:none;stroke-width:1.76389"
         d="m 179.2684,43.926593 c -0.4585,-0.2805 -1.00715,-0.464 -1.61745,-0.5556 -0.56975,-0.0795 -1.21535,-0.1145 -1.97205,-0.1145 -1.21885,0 -2.4553,0.1375 -3.67595,0.4145 l -0.305,0.0705 v 2.44125 l 0.4815,-0.0915 c 0.52385,-0.1075 1.06715,-0.2065 1.66685,-0.3015 0.53975,-0.083 1.08305,-0.1255 1.61925,-0.1255 0.7091,0 1.22595,0.035 1.57165,0.111 0.3035,0.0705 0.5186,0.178 0.66145,0.3335 0.1285,0.1465 0.208,0.367 0.24,0.6703 0.025,0.2485 0.045,0.57325 0.051,0.99305 -0.1695,-0.004 -0.33,-0.01 -0.4725,-0.025 -0.2715,-0.02 -0.53975,-0.035 -0.77085,-0.035 -0.476,0 -1.01775,0.02 -1.76035,0.058 -0.67555,0.03 -1.3053,0.173 -1.86975,0.4145 -0.60675,0.245 -1.0971,0.61915 -1.5028,1.1536 -0.4125,0.5415 -0.61735,1.2753 -0.61735,2.2525 0,0.78315 0.1285,1.4552 0.374,1.98965 0.245,0.53445 0.6015,0.9578 1.05305,1.26295 0.439,0.3085 0.97015,0.51505 1.5681,0.6209 0.58385,0.102 1.21885,0.157 1.88915,0.157 0.62265,0 1.2929,-0.015 2.1202,-0.045 0.732,-0.035 1.51515,-0.102 2.3989,-0.2135 l 0.3455,-0.045 v -7.9851 c 0,-0.87135 -0.1235,-1.58925 -0.3705,-2.129 -0.247,-0.55035 -0.61915,-0.979 -1.106,-1.27885 m -1.2577,9.29225 c -0.312,0.025 -0.5662,0.035 -0.75315,0.053 -0.2945,0.025 -0.5327,0.035 -0.75145,0.035 -0.365,0 -0.73025,-0.02 -1.10065,-0.06 -0.323,-0.035 -0.6068,-0.111 -0.86605,-0.2415 -0.226,-0.1005 -0.3985,-0.256 -0.5274,-0.455 -0.136,-0.222 -0.203,-0.5274 -0.203,-0.90665 0,-0.307 0.0565,-0.5909 0.159,-0.77965 0.1235,-0.194 0.2895,-0.3475 0.4975,-0.4605 0.238,-0.118 0.54505,-0.2045 0.8978,-0.2485 0.4165,-0.045 0.8643,-0.0705 1.3247,-0.0705 0.0955,0 0.8449,0.03 1.3229,0.05 z"
         id="path11" />
      <path
         style="fill:#0048bb;fill-opacity:1;fill-rule:nonzero;stroke:none;stroke-width:1.76389"
         d="m 190.2554,44.134293 c -0.3265,-0.3 -0.71435,-0.538 -1.13065,-0.68615 -0.4075,-0.127 -0.81665,-0.1905 -1.22415,-0.1905 -0.397,0 -0.71965,0.02 -0.986,0.0565 -0.291,0.025 -0.59795,0.0935 -0.9384,0.2045 -0.27,0.0775 -0.58205,0.194 -1.0389,0.3915 -0.2205,0.1005 -0.4675,0.2115 -0.7338,0.3405 v -0.77965 h -2.58055 v 11.9186 h 2.7111 v -8.68185 l 0.5168,-0.224 c 0.233,-0.113 0.4765,-0.194 0.71085,-0.2805 l 0.1075,-0.04 c 0.33,-0.106 0.59445,-0.18 0.86255,-0.24 0.2665,-0.062 0.50625,-0.099 0.7073,-0.099 0.367,0 0.64205,0.058 0.81495,0.1625 0.1745,0.113 0.3035,0.2505 0.365,0.404 0.097,0.2045 0.1515,0.42 0.1675,0.65445 0.02,0.3245 0.025,0.60675 0.025,0.859 v 7.48415 h 2.74635 v -8.352 c 0,-0.6456 -0.095,-1.22235 -0.289,-1.71095 -0.2135,-0.4955 -0.478,-0.8837 -0.81495,-1.1924"
         id="path10" />
      <path
         style="fill:#0048bb;fill-opacity:1;fill-rule:nonzero;stroke:none;stroke-width:1.76389"
         d="m 197.7697,43.302533 c -0.226,-0.035 -0.50095,-0.045 -0.85375,-0.045 -0.69675,0 -1.29115,0.083 -1.8115,0.26099 -0.57325,0.1745 -1.06715,0.4375 -1.5046,0.80606 -0.4285,0.3705 -0.75495,0.81669 -1.0019,1.36879 -0.2415,0.5415 -0.3685,1.173 -0.3685,1.8768 0,0.48851 0.065,0.9313 0.178,1.3229 0.1145,0.397 0.2665,0.7232 0.4515,1.00015 0.178,0.263 0.381,0.4955 0.59975,0.69496 l 0.1605,0.14299 c -0.312,0.282 -0.5662,0.58035 -0.762,0.889 -0.282,0.4355 -0.425,0.97195 -0.425,1.59105 0,0.5874 0.134,1.05125 0.4145,1.4252 0.286,0.344 0.6315,0.598 1.06715,0.7761 0.3985,0.1625 0.85725,0.263 1.40055,0.3 0.4375,0.04 0.92605,0.0615 1.4958,0.0615 h 1.38285 c 0.1625,0 0.36,0 0.60325,0.01 0.187,0.01 0.3865,0.045 0.62265,0.106 0.18,0.051 0.3265,0.1255 0.4375,0.226 l 0.1095,0.305 -0.18,0.409 c -0.127,0.15 -0.3315,0.293 -0.61915,0.4285 -0.2855,0.1325 -0.62615,0.2345 -1.05655,0.314 -0.4005,0.081 -0.8449,0.1165 -1.3494,0.1165 -0.5909,0 -1.15005,-0.04 -1.72155,-0.127 -0.54505,-0.076 -1.10945,-0.171 -1.77095,-0.3 l -0.6103,-0.1145 0.5909,2.44475 0.247,0.0545 c 0.6932,0.15 1.38645,0.2595 2.04965,0.3105 0.6632,0.0545 1.29115,0.0795 1.92615,0.0795 0.77965,0 1.5258,-0.0725 2.22605,-0.222 0.57325,-0.1235 0.8537,-0.312 1.14475,-0.5168 l 0.275,-0.1765 c 0.5274,-0.314 0.9472,-0.73025 1.2435,-1.2347 0.3015,-0.51505 0.45,-1.11305 0.45,-1.778 0,-0.6738 -0.1395,-1.19945 -0.4285,-1.61575 -0.3,-0.42 -0.6562,-0.7161 -1.09185,-0.92075 -0.4095,-0.201 -0.8837,-0.3315 -1.4023,-0.3935 -0.494,-0.0615 -0.98955,-0.088 -1.50635,-0.10599 l -1.7604,0.025 c -0.277,0 -0.5468,-0.02 -0.79725,-0.045 -0.4075,-0.062 -0.55385,-0.13399 -0.6015,-0.171 l -0.0635,-0.0935 0.06,-0.26651 0.224,-0.323 0.2715,-0.25749 0.224,-0.171 0.381,0.053 c 0.2045,0.02 0.381,0.03 0.57855,0.03 0.91545,0 1.69865,-0.1375 2.3266,-0.41449 0.6526,-0.298 1.13945,-0.64031 1.4834,-1.0548 0.372,-0.4165 0.6297,-0.8943 0.762,-1.41465 0.136,-0.499 0.1975,-0.979 0.1975,-1.427 0,-0.5662 -0.09,-1.0901 -0.2735,-1.55575 l -0.1905,-0.4165 0.5592,0.05 c 0.388,0.025 0.67025,0.045 0.8643,0.045 h 0.395 v -2.5841 l -4.6461,0.307 c -0.189,-0.035 -0.4075,-0.0635 -0.60675,-0.0845 m 0.6169,5.73189 c -0.307,0.3035 -0.80435,0.457 -1.4711,0.457 -0.5715,0 -1.0107,-0.159 -1.3529,-0.4815 -0.3315,-0.305 -0.50445,-0.8255 -0.50445,-1.55225 0,-0.6138 0.157,-1.0777 0.4725,-1.4217 0.316,-0.3245 0.77965,-0.4905 1.38465,-0.4905 0.59795,0 1.0795,0.166 1.4323,0.492 0.3455,0.323 0.5168,0.7902 0.5168,1.4199 0,0.7426 -0.1605,1.27355 -0.478,1.57695"
         id="path9" />
      <path
         style="fill:#0048bb;fill-opacity:1;fill-rule:nonzero;stroke:none;stroke-width:1.76389"
         d="m 212.52235,43.993883 c -0.335,-0.305 -0.7179,-0.5292 -1.1377,-0.6562 -0.4235,-0.1285 -0.8308,-0.1975 -1.2259,-0.1975 -0.3685,0 -0.71265,0.035 -0.97015,0.0635 -0.307,0.04 -0.6156,0.1075 -0.91545,0.1925 -0.36,0.1095 -0.68795,0.226 -0.9931,0.36 -0.203,0.083 -0.42,0.1765 -0.6632,0.2855 v -5.3146 h -2.72345 v 16.65995 h 2.7446 v -8.8071 c 0.134,-0.0635 0.286,-0.1305 0.455,-0.203 0.2575,-0.12 0.5362,-0.2275 0.80255,-0.3175 0.2825,-0.0915 0.5715,-0.178 0.85375,-0.247 0.3015,-0.067 0.5309,-0.095 0.72495,-0.095 0.3245,0 0.6103,0.05 0.80255,0.1395 0.1815,0.0915 0.3105,0.203 0.39,0.3315 0.097,0.1605 0.1535,0.344 0.1905,0.58035 0.035,0.277 0.058,0.55915 0.058,0.84135 v 7.777 h 2.72875 v -8.2832 c 0,-0.75495 -0.095,-1.37055 -0.2945,-1.8768 -0.2045,-0.5115 -0.4815,-0.9278 -0.82725,-1.23295"
         id="path8" />
      <path
         style="fill:#0048bb;fill-opacity:1;fill-rule:nonzero;stroke:none;stroke-width:1.76389"
         d="m 222.7852,43.926993 c -0.4655,-0.28051 -1.0125,-0.46401 -1.6228,-0.55561 -0.575,-0.0795 -1.2171,-0.1145 -1.96675,-0.1145 -1.21175,0 -2.4465,0.13751 -3.67415,0.4145 l -0.307,0.074 v 2.4377 l 0.4745,-0.0915 c 0.499,-0.097 1.04245,-0.201 1.6669,-0.3015 0.54855,-0.083 1.0936,-0.1255 1.621,-0.1255 0.71435,0 1.2312,0.035 1.5822,0.111 0.307,0.0705 0.5239,0.178 0.6491,0.328 0.1305,0.1515 0.217,0.3825 0.247,0.6597 0.015,0.2645 0.04,0.6068 0.0545,1.00895 -0.171,-0.004 -0.33,-0.01 -0.4835,-0.025 -0.2735,-0.02 -0.53095,-0.035 -0.762,-0.035 -0.478,0 -1.03365,0.02 -1.7533,0.058 -0.67555,0.03 -1.3088,0.1675 -1.88205,0.4145 -0.59975,0.2485 -1.10775,0.6368 -1.5117,1.16065 -0.402,0.55565 -0.5997,1.2894 -0.5997,2.24545 0,0.80255 0.1145,1.4552 0.358,1.9932 0.2525,0.5309 0.6121,0.95425 1.0619,1.2594 0.4355,0.3085 0.96835,0.51505 1.56805,0.6209 0.5821,0.102 1.22065,0.157 1.8909,0.157 0.6121,0 1.2894,-0.015 2.12375,-0.045 0.732,-0.035 1.53455,-0.104 2.38655,-0.2135 l 0.342,-0.045 v -7.9851 c 0,-0.87665 -0.118,-1.5893 -0.358,-2.12905 -0.256,-0.5556 -0.62795,-0.98245 -1.10595,-1.2788 m -1.2571,9.2925 c -0.3195,0.025 -0.56625,0.035 -0.7532,0.053 -0.5327,0.045 -1.2118,0.05 -1.84505,-0.025 -0.3315,-0.04 -0.61735,-0.111 -0.8819,-0.2415 -0.2115,-0.0955 -0.3865,-0.24351 -0.52035,-0.45501 -0.136,-0.22249 -0.2045,-0.51504 -0.2045,-0.90659 0,-0.3195 0.0635,-0.598 0.1625,-0.7832 0.118,-0.1995 0.286,-0.34551 0.4885,-0.457 0.254,-0.12 0.55385,-0.2045 0.90665,-0.2485 0.411,-0.045 0.8537,-0.0705 1.32465,-0.0705 0.1005,0 0.8449,0.03 1.32295,0.05 z"
         id="path7" />
      <path
         style="fill:#0048bb;fill-opacity:1;fill-rule:nonzero;stroke:none;stroke-width:1.76389"
         d="m 225.12585,41.581033 h 2.73405 v -2.8522 h -2.73405 z"
         id="path6" />
      <path
         style="fill:#0048bb;fill-opacity:1;fill-rule:nonzero;stroke:none;stroke-width:1.76389"
         d="m 225.12585,55.388733 h 2.73405 v -11.90625 h -2.73405 z"
         id="path420" />
    </g>
  </g>
</svg>
